<?xml version="1.0" encoding="UTF-8" standalone="no"?>
<svg
   width="169.013"
   height="244.55017"
   viewBox="-0.2 -236 169.07508 244.55018"
   version="1.1"
   id="svg2917"
   sodipodi:docname="Svg-cards-2.0.svg"
   xmlns:inkscape="http://www.inkscape.org/namespaces/inkscape"
   xmlns:sodipodi="http://sodipodi.sourceforge.net/DTD/sodipodi-0.dtd"
   xmlns:xlink="http://www.w3.org/1999/xlink"
   xmlns="http://www.w3.org/2000/svg"
   xmlns:svg="http://www.w3.org/2000/svg">
  <sodipodi:namedview
     id="namedview2919"
     pagecolor="#505050"
     bordercolor="#eeeeee"
     borderopacity="1"
     inkscape:showpageshadow="0"
     inkscape:pageopacity="0"
     inkscape:pagecheckerboard="0"
     inkscape:deskcolor="#505050"
     showgrid="false" />
  <defs
     id="defs354">
    <g
       id="aw"
       transform="matrix(0.4,0,0,0.4,236.59,667.12)">
      <path
         id="bo"
         transform="translate(-1.35,-0.76)"
         d="m 355.65,280.19 c 0,0 -3.75,-8.1 -8.1,-12.6 -4.36,-4.51 -9.68,-7.58 -11.04,-6.53"
         fill="#ffffff"
         fill-opacity="1"
         fill-rule="evenodd" />
      <path
         id="bn"
         d="m 368.97,258.94 c -2.29,0.08 -5.9,1.92 -7.85,3.87 -2.59,2.6 -3.52,7.58 -3.59,9.44 -0.07,1.86 -1.32,-0.84 -2.19,-2.37 -0.86,-1.54 -1.93,-5.4 -2.22,-3.22 -0.28,2.2 -0.34,3.26 0.07,5.72 0.4,2.45 1.59,7.15 2.56,8.68 l 3.97,3.94 c 1.87,-1.88 3.1,-6.25 3.19,-6.25 l -0.07,9.34 4.35,4.32 c -1.16,-2.37 -1.94,-6.58 -1.63,-10.38 0.32,-3.8 2.3,-8.59 2.06,-10.44 -1.14,-0.4 -2.9,2.58 -5.21,1.88 -0.08,-1.75 0.74,-6.02 1.9,-7.69 1.17,-1.66 4.43,-5.7 6.41,-6.28 -0.36,-0.42 -0.99,-0.59 -1.75,-0.56 z"
         fill="#ffffff"
         fill-opacity="1"
         fill-rule="evenodd" />
      <path
         id="bp"
         transform="translate(-1.35,-0.76)"
         d="m 329.36,254.28 c 9.62,-4.95 19.64,8.3 19.64,8.3 0,0 1.44,-9.25 3.32,-9.36 1.88,-0.11 4.87,7.31 4.87,7.31 0,0 5.76,-7.64 15.72,-7.58 9.97,0.05 11.57,9.13 5.87,9.57 -5.66,0.44 -2.38,-5.15 -2.27,-3.65 0.06,0.17 -5.37,-7.75 -19.15,7.86 -2.03,2.3 -3.94,-8.46 -4.93,-6.09 -1.21,2.88 -0.22,6.26 -1.11,8.53 1.39,1.71 -11.35,-13.84 -16.77,-9.58"
         fill="#ffffff"
         fill-opacity="1"
         fill-rule="evenodd" />
      <use
         transform="matrix(0,1,1,0,74.5,-74.49)"
         fill="#ffffff"
         fill-opacity="1"
         xlink:href="#bp"
         id="use303" />
      <use
         transform="matrix(0,1,1,0,74.9,-74.93)"
         fill="#ffffff"
         fill-opacity="1"
         xlink:href="#bo"
         id="use305" />
      <use
         transform="matrix(0,1,1,0,74.82,-74.82)"
         fill="#ffffff"
         fill-opacity="1"
         xlink:href="#bn"
         id="use307" />
    </g>
    <text
       id="an"
       transform="scale(0.56453,1.0574)"
       font-family="'DejaVu Serif'"
       font-size="43px"
       font-weight="bold">7</text>
    <path
       id="ae"
       d="m 0,0 c 0,3.78 3.09,6.87 6.87,6.87 h 152.845 c 3.77,0 6.86,-3.09 6.86,-6.87 v -228.4 c 0,-3.78 -3.09,-6.87 -6.86,-6.87 H 6.87 c -3.78,0 -6.87,3.09 -6.87,6.87 z"
       fill="#ffffff"
       stroke="#000000"
       stroke-width="2.5" />
    <path
       id="aa"
       d="m 0,0 h -7.68 c 0.875,0.039 1.619,0.605 2.322,1.073 C -3.779,2.264 -2.3,3.63 -1.132,5.228 -0.587,6.032 -0.014,6.936 0,7.94 M -7.68,0 c 1.11,-0.035 2.058,-0.741 2.904,-1.393 1.495,-1.255 2.789,-2.748 3.881,-4.364 C -0.494,-6.426 -0.022,-7.135 0,-7.94 V 0 m 0,-7.94 c 0.038,1.182 0.758,2.206 1.438,3.12 a 20.892,20.892 0 0 0 4.228,3.963 C 6.28,-0.474 6.932,-0.018 7.68,0 H 0 M 7.68,0 C 6.57,0.035 5.622,0.741 4.776,1.392 3.281,2.648 1.987,4.141 0.895,5.757 0.494,6.426 0.022,7.135 0,7.94 V 0"
       fill="#e6180a" />
  </defs>
  <use
     x="1005.45"
     y="243.13699"
     xlink:href="#ae"
     id="use1064"
     transform="translate(-1004.4,-242.84033)" />
  <use
     x="1009.45"
     y="44.02"
     fill="#e6180a"
     xlink:href="#an"
     id="use1066"
     transform="translate(-1004.4,-242.84033)" />
  <use
     transform="rotate(180,666.79999,91.439836)"
     x="1169.02"
     y="212.85699"
     fill="#e6180a"
     xlink:href="#an"
     id="use1068" />
  <use
     transform="rotate(180,516.89999,-63.400164)"
     x="1019.1"
     y="58.02"
     xlink:href="#aa"
     id="use1070" />
  <use
     x="1159.37"
     y="198.85699"
     xlink:href="#aa"
     id="use1072"
     transform="translate(-1004.4,-242.84033)" />
  <use
     transform="matrix(-2.4,0,0,-2.4,1094.2,-153.58533)"
     x="437.21201"
     y="18.594999"
     xlink:href="#aa"
     id="use1074" />
  <use
     transform="matrix(-2.4,0,0,-2.4,1094.2,0.29967276)"
     x="437.21201"
     y="50.653999"
     xlink:href="#aa"
     id="use1076" />
  <use
     transform="matrix(2.4,0,0,2.4,-1004.4,-242.84033)"
     x="437.21201"
     y="86.708"
     xlink:href="#aa"
     id="use1078" />
  <use
     transform="matrix(-2.4,0,0,-2.4,1253.9,-153.58533)"
     x="470.48599"
     y="18.594999"
     xlink:href="#aa"
     id="use1080" />
  <use
     transform="matrix(-2.4,0,0,-2.4,1253.9,0.29967276)"
     x="470.48599"
     y="50.653999"
     xlink:href="#aa"
     id="use1082" />
  <use
     transform="matrix(2.4,0,0,2.4,-1004.4,-242.84033)"
     x="470.48599"
     y="86.708"
     xlink:href="#aa"
     id="use1084" />
  <use
     transform="matrix(-2.4,0,0,-2.4,1174,-45.272327)"
     x="453.849"
     y="41.16"
     xlink:href="#aa"
     id="use1086" />
</svg>
