<?xml version="1.0" encoding="UTF-8" standalone="no"?>
<svg
   width="169.013"
   height="244.55019"
   viewBox="-0.2 -236 169.07508 244.5502"
   version="1.1"
   id="svg2917"
   sodipodi:docname="Svg-cards-2.0.svg"
   xmlns:inkscape="http://www.inkscape.org/namespaces/inkscape"
   xmlns:sodipodi="http://sodipodi.sourceforge.net/DTD/sodipodi-0.dtd"
   xmlns:xlink="http://www.w3.org/1999/xlink"
   xmlns="http://www.w3.org/2000/svg"
   xmlns:svg="http://www.w3.org/2000/svg">
  <sodipodi:namedview
     id="namedview2919"
     pagecolor="#505050"
     bordercolor="#eeeeee"
     borderopacity="1"
     inkscape:showpageshadow="0"
     inkscape:pageopacity="0"
     inkscape:pagecheckerboard="0"
     inkscape:deskcolor="#505050"
     showgrid="false" />
  <defs
     id="defs354">
    <g
       id="ab">
      <path
         d="m 3.35,4.66 c 0,-1.81 -1.51,-3.28 -3.38,-3.28 -1.87,0 -3.38,1.47 -3.38,3.28 0,1.81 1.51,3.28 3.38,3.28 1.87,0 3.38,-1.47 3.38,-3.28 z m 4.36,-6.21 c 0,-1.81 -1.51,-3.28 -3.38,-3.28 -1.87,0 -3.38,1.47 -3.38,3.28 0,1.81 1.51,3.28 3.38,3.28 1.87,0 3.38,-1.47 3.38,-3.28 z m -8.66,-0.02 c 0,-0.66 -0.2,-1.28 -0.55,-1.8 -0.6,-0.89 -1.65,-1.48 -2.83,-1.48 -1.87,0 -3.38,1.47 -3.38,3.28 0,1.81 1.51,3.28 3.38,3.28 1.87,0 3.38,-1.47 3.38,-3.28 z m 4.89,-6.37 c -1.67,0 -2.55,1.36 -3.01,2.72 -0.46,1.36 -0.5,2.72 -0.5,2.72 h -0.86 c 0,0 -0.16,-5.43 -3.5,-5.44 z"
         id="path2" />
      <path
         d="m -2.32,2.25 c 1.9,-1.9 1.9,-4.75 1.9,-4.75 l 0.85,-0.01 c 0,0 0,2.91 1.85,4.76"
         id="path4" />
      <path
         d="m -1.94,-3.85 c 1.9,1.9 4.75,1.9 4.75,1.9 v 0.85 c 0,0 -2.91,0 -4.76,1.85"
         id="path6" />
      <path
         d="m 1.87,-3.86 c -1.9,1.9 -4.75,1.9 -4.75,1.9 v 0.85 c 0,0 2.91,0 4.76,1.85"
         id="path8" />
    </g>
    <g
       id="aw"
       transform="matrix(0.4,0,0,0.4,236.59,667.12)">
      <path
         id="bo"
         transform="translate(-1.35,-0.76)"
         d="m 355.65,280.19 c 0,0 -3.75,-8.1 -8.1,-12.6 -4.36,-4.51 -9.68,-7.58 -11.04,-6.53"
         fill="#ffffff"
         fill-opacity="1"
         fill-rule="evenodd" />
      <path
         id="bn"
         d="m 368.97,258.94 c -2.29,0.08 -5.9,1.92 -7.85,3.87 -2.59,2.6 -3.52,7.58 -3.59,9.44 -0.07,1.86 -1.32,-0.84 -2.19,-2.37 -0.86,-1.54 -1.93,-5.4 -2.22,-3.22 -0.28,2.2 -0.34,3.26 0.07,5.72 0.4,2.45 1.59,7.15 2.56,8.68 l 3.97,3.94 c 1.87,-1.88 3.1,-6.25 3.19,-6.25 l -0.07,9.34 4.35,4.32 c -1.16,-2.37 -1.94,-6.58 -1.63,-10.38 0.32,-3.8 2.3,-8.59 2.06,-10.44 -1.14,-0.4 -2.9,2.58 -5.21,1.88 -0.08,-1.75 0.74,-6.02 1.9,-7.69 1.17,-1.66 4.43,-5.7 6.41,-6.28 -0.36,-0.42 -0.99,-0.59 -1.75,-0.56 z"
         fill="#ffffff"
         fill-opacity="1"
         fill-rule="evenodd" />
      <path
         id="bp"
         transform="translate(-1.35,-0.76)"
         d="m 329.36,254.28 c 9.62,-4.95 19.64,8.3 19.64,8.3 0,0 1.44,-9.25 3.32,-9.36 1.88,-0.11 4.87,7.31 4.87,7.31 0,0 5.76,-7.64 15.72,-7.58 9.97,0.05 11.57,9.13 5.87,9.57 -5.66,0.44 -2.38,-5.15 -2.27,-3.65 0.06,0.17 -5.37,-7.75 -19.15,7.86 -2.03,2.3 -3.94,-8.46 -4.93,-6.09 -1.21,2.88 -0.22,6.26 -1.11,8.53 1.39,1.71 -11.35,-13.84 -16.77,-9.58"
         fill="#ffffff"
         fill-opacity="1"
         fill-rule="evenodd" />
      <use
         transform="matrix(0,1,1,0,74.5,-74.49)"
         fill="#ffffff"
         fill-opacity="1"
         xlink:href="#bp"
         id="use303" />
      <use
         transform="matrix(0,1,1,0,74.9,-74.93)"
         fill="#ffffff"
         fill-opacity="1"
         xlink:href="#bo"
         id="use305" />
      <use
         transform="matrix(0,1,1,0,74.82,-74.82)"
         fill="#ffffff"
         fill-opacity="1"
         xlink:href="#bn"
         id="use307" />
    </g>
    <text
       id="al"
       transform="scale(0.56453,1.0574)"
       font-family="'DejaVu Serif'"
       font-size="43px"
       font-weight="bold">9</text>
    <path
       id="ae"
       d="m 0,0 c 0,3.78 3.09,6.87 6.87,6.87 h 152.845 c 3.77,0 6.86,-3.09 6.86,-6.87 v -228.4 c 0,-3.78 -3.09,-6.87 -6.86,-6.87 H 6.87 c -3.78,0 -6.87,3.09 -6.87,6.87 z"
       fill="#ffffff"
       stroke="#000000"
       stroke-width="2.5" />
  </defs>
  <use
     x="1340.6"
     xlink:href="#ae"
     id="use510"
     transform="translate(-1339.5499,0.29667039)" />
  <use
     x="1344.6"
     y="-199.117"
     xlink:href="#al"
     id="use512"
     transform="translate(-1339.5499,0.29667039)" />
  <use
     transform="rotate(180,834.42504,-30.131665)"
     x="1504.17"
     y="-30.280001"
     xlink:href="#al"
     id="use514" />
  <use
     transform="rotate(180,684.42504,-184.97166)"
     x="1354.25"
     y="-185.117"
     xlink:href="#ab"
     id="use516" />
  <use
     x="1494.52"
     y="-44.279999"
     xlink:href="#ab"
     id="use518"
     transform="translate(-1339.5499,0.29667039)" />
  <use
     transform="matrix(-2.4,0,0,-2.4,1429.4501,-396.72333)"
     x="576.85797"
     y="-82.712997"
     xlink:href="#ab"
     id="use520" />
  <use
     transform="matrix(-2.4,0,0,-2.4,1429.4501,-288.40333)"
     x="576.85797"
     y="-60.146999"
     xlink:href="#ab"
     id="use522" />
  <use
     transform="matrix(2.4,0,0,2.4,-1339.5499,0.29667039)"
     x="576.85797"
     y="-37.164001"
     xlink:href="#ab"
     id="use524" />
  <use
     transform="matrix(2.4,0,0,2.4,-1339.5499,0.29667039)"
     x="576.85797"
     y="-14.599"
     xlink:href="#ab"
     id="use526" />
  <use
     transform="matrix(-2.4,0,0,-2.4,1589.0501,-396.72333)"
     x="610.13202"
     y="-82.712997"
     xlink:href="#ab"
     id="use528" />
  <use
     transform="matrix(-2.4,0,0,-2.4,1589.0501,-288.41333)"
     x="610.13202"
     y="-60.146999"
     xlink:href="#ab"
     id="use530" />
  <use
     transform="matrix(2.4,0,0,2.4,-1339.5499,0.29667039)"
     x="610.13202"
     y="-37.164001"
     xlink:href="#ab"
     id="use532" />
  <use
     transform="matrix(2.4,0,0,2.4,-1339.5499,0.29667039)"
     x="610.13202"
     y="-14.599"
     xlink:href="#ab"
     id="use534" />
  <use
     transform="matrix(-2.4,0,0,-2.4,1509.2501,-342.56333)"
     x="593.495"
     y="-71.43"
     xlink:href="#ab"
     id="use536" />
</svg>
