<?xml version="1.0" encoding="UTF-8" standalone="no"?>
<svg
   width="169.01291"
   height="244.55022"
   viewBox="-0.2 -236 169.07499 244.55023"
   version="1.1"
   id="svg2917"
   sodipodi:docname="Svg-cards-2.0.svg"
   xmlns:inkscape="http://www.inkscape.org/namespaces/inkscape"
   xmlns:sodipodi="http://sodipodi.sourceforge.net/DTD/sodipodi-0.dtd"
   xmlns:xlink="http://www.w3.org/1999/xlink"
   xmlns="http://www.w3.org/2000/svg"
   xmlns:svg="http://www.w3.org/2000/svg">
  <sodipodi:namedview
     id="namedview2919"
     pagecolor="#505050"
     bordercolor="#eeeeee"
     borderopacity="1"
     inkscape:showpageshadow="0"
     inkscape:pageopacity="0"
     inkscape:pagecheckerboard="0"
     inkscape:deskcolor="#505050"
     showgrid="false" />
  <defs
     id="defs354">
    <g
       id="aw"
       transform="matrix(0.4,0,0,0.4,236.59,667.12)">
      <path
         id="bo"
         transform="translate(-1.35,-0.76)"
         d="m 355.65,280.19 c 0,0 -3.75,-8.1 -8.1,-12.6 -4.36,-4.51 -9.68,-7.58 -11.04,-6.53"
         fill="#ffffff"
         fill-opacity="1"
         fill-rule="evenodd" />
      <path
         id="bn"
         d="m 368.97,258.94 c -2.29,0.08 -5.9,1.92 -7.85,3.87 -2.59,2.6 -3.52,7.58 -3.59,9.44 -0.07,1.86 -1.32,-0.84 -2.19,-2.37 -0.86,-1.54 -1.93,-5.4 -2.22,-3.22 -0.28,2.2 -0.34,3.26 0.07,5.72 0.4,2.45 1.59,7.15 2.56,8.68 l 3.97,3.94 c 1.87,-1.88 3.1,-6.25 3.19,-6.25 l -0.07,9.34 4.35,4.32 c -1.16,-2.37 -1.94,-6.58 -1.63,-10.38 0.32,-3.8 2.3,-8.59 2.06,-10.44 -1.14,-0.4 -2.9,2.58 -5.21,1.88 -0.08,-1.75 0.74,-6.02 1.9,-7.69 1.17,-1.66 4.43,-5.7 6.41,-6.28 -0.36,-0.42 -0.99,-0.59 -1.75,-0.56 z"
         fill="#ffffff"
         fill-opacity="1"
         fill-rule="evenodd" />
      <path
         id="bp"
         transform="translate(-1.35,-0.76)"
         d="m 329.36,254.28 c 9.62,-4.95 19.64,8.3 19.64,8.3 0,0 1.44,-9.25 3.32,-9.36 1.88,-0.11 4.87,7.31 4.87,7.31 0,0 5.76,-7.64 15.72,-7.58 9.97,0.05 11.57,9.13 5.87,9.57 -5.66,0.44 -2.38,-5.15 -2.27,-3.65 0.06,0.17 -5.37,-7.75 -19.15,7.86 -2.03,2.3 -3.94,-8.46 -4.93,-6.09 -1.21,2.88 -0.22,6.26 -1.11,8.53 1.39,1.71 -11.35,-13.84 -16.77,-9.58"
         fill="#ffffff"
         fill-opacity="1"
         fill-rule="evenodd" />
      <use
         transform="matrix(0,1,1,0,74.5,-74.49)"
         fill="#ffffff"
         fill-opacity="1"
         xlink:href="#bp"
         id="use303" />
      <use
         transform="matrix(0,1,1,0,74.9,-74.93)"
         fill="#ffffff"
         fill-opacity="1"
         xlink:href="#bo"
         id="use305" />
      <use
         transform="matrix(0,1,1,0,74.82,-74.82)"
         fill="#ffffff"
         fill-opacity="1"
         xlink:href="#bn"
         id="use307" />
    </g>
    <text
       id="at"
       transform="scale(0.56453,1.0574)"
       font-family="'DejaVu Serif'"
       font-size="43px"
       font-weight="bold">A</text>
    <path
       id="ae"
       d="m 0,0 c 0,3.78 3.09,6.87 6.87,6.87 h 152.845 c 3.77,0 6.86,-3.09 6.86,-6.87 v -228.4 c 0,-3.78 -3.09,-6.87 -6.86,-6.87 H 6.87 c -3.78,0 -6.87,3.09 -6.87,6.87 z"
       fill="#ffffff"
       stroke="#000000"
       stroke-width="2.5" />
    <path
       id="ad"
       d="m -7.67,3.93 c 0.01,-4.71 5.91,-8.14 7.64,-11.87 1.75,3.72 7.66,7.12 7.7,11.83 C 7.68,6.11 5.96,7.92 3.85,7.92 1.73,7.92 0,6.13 0,3.91 0,6.14 -1.71,7.94 -3.82,7.94 -5.94,7.95 -7.66,6.15 -7.67,3.93 Z"
       fill="#e6180a" />
  </defs>
  <use
     y="486.27499"
     xlink:href="#ae"
     id="use1550"
     transform="translate(1.05,-485.97834)" />
  <use
     x="4"
     y="287.15701"
     fill="#e6180a"
     xlink:href="#at"
     id="use1552"
     transform="translate(1.05,-485.97834)" />
  <use
     transform="rotate(180,164.105,213.01083)"
     x="163.575"
     y="455.995"
     fill="#e6180a"
     xlink:href="#at"
     id="use1554" />
  <use
     transform="rotate(180,14.175,58.17083)"
     x="13.65"
     y="301.15701"
     xlink:href="#ad"
     id="use1556" />
  <use
     x="153.925"
     y="441.995"
     xlink:href="#ad"
     id="use1558"
     transform="translate(1.05,-485.97834)" />
  <use
     transform="matrix(-2.4,0,0,-2.4,168.626,243.44166)"
     x="34.910999"
     y="151.961"
     xlink:href="#ad"
     id="use1560" />
</svg>
