<?xml version="1.0" encoding="UTF-8" standalone="no"?>
<svg
   width="169.013"
   height="244.55016"
   viewBox="-0.2 -236 169.07508 244.55017"
   version="1.1"
   id="svg2917"
   sodipodi:docname="Svg-cards-2.0.svg"
   xmlns:inkscape="http://www.inkscape.org/namespaces/inkscape"
   xmlns:sodipodi="http://sodipodi.sourceforge.net/DTD/sodipodi-0.dtd"
   xmlns:xlink="http://www.w3.org/1999/xlink"
   xmlns="http://www.w3.org/2000/svg"
   xmlns:svg="http://www.w3.org/2000/svg">
  <sodipodi:namedview
     id="namedview2919"
     pagecolor="#505050"
     bordercolor="#eeeeee"
     borderopacity="1"
     inkscape:showpageshadow="0"
     inkscape:pageopacity="0"
     inkscape:pagecheckerboard="0"
     inkscape:deskcolor="#505050"
     showgrid="false" />
  <defs
     id="defs354">
    <g
       id="ac">
      <path
         d="m 3.92,-7.93 c -1.67,0 -2.55,1.78 -3.01,3.56 -0.46,1.78 -0.5,3.56 -0.5,3.56 l -0.85,0.01 c 0,0 -0.16,-7.13 -3.5,-7.13 z"
         id="path11" />
      <path
         d="M 6.75,-0.8 C 6.74,2.67 1.53,5.19 0,7.93 -1.53,5.18 -6.74,2.66 -6.75,-0.8 c 0,-1.64 1.51,-2.97 3.38,-2.97 1.86,0 3.37,1.33 3.37,2.97 0,-1.64 1.51,-2.97 3.38,-2.97 1.87,0 3.37,1.33 3.37,2.97 z"
         id="path13" />
    </g>
    <g
       id="bh">
      <path
         d="m 235.16,276.6 -0.81,3.96 1.86,5.22 -0.32,-1.4 z m -11.96,19.45 -0.38,-1.18 -0.1,3.82 z m -5.48,7.57 -0.73,-0.93 1.76,5.72 3.07,-4.69 0.55,-3.05 -3.23,2.89 z m 16.99,-1.91 3.37,-6.14 -7.95,13.03 1.82,-2.54 z m 4.49,-8.92 -0.88,-1.09 0.66,1.87 1.71,-3.92 z m 1.29,-30.07 -2.73,4.21 3.9,-4.84 z m 3.25,18.84 0.72,-1.96 0.06,-0.02 0.28,-1.34 -0.11,0.53 z m -6.88,-13.25 -1.68,8.19 2.4,-9.3 z m 10.17,-0.68 0.11,-1.38 -0.75,4.4 z m -17.36,0.63 -5.19,9.65 -4.61,8.74 -3.21,4.58 2.54,-2.05 0.94,0.76 -1.19,-1.14 10.75,-20.16 5.75,-11.25 1.18,-2.63 -2.88,5.62 z m -4.42,-14.41 0.76,-0.31 -1.32,0.5 z m 7.44,-3.31 2.74,-1.73 0.3,-0.21 -4.97,2.86 z m 15.11,-4.81 0.28,4.17 -0.35,8.87 0.56,-7 z m -10.76,1.96 0.89,-0.62 2.26,-2.17 -0.29,2.22 -1.25,2.74 -1.34,3.36 4.99,-11.15 -0.5,0.95 z m 8.04,-10.88 -1.92,3.64 2.47,-4.07 -0.24,-0.68 z m 2.1,28.92 0.55,-6.86 -4.93,2.61 3.75,-0.5 z m -75.35,64.07 0.03,0.5 0.87,-14.01 -0.84,2.84 -0.71,1.15 1.04,-0.05 z m 4.6,35.1 -1.67,-5.89 0.91,3.78 z m -3.37,-14.63 0.5,2.83 -0.7,-5.05 -0.55,-7.37 0.11,3.27 z m -5.06,-24.99 -1.57,1.69 0.86,-0.57 z m 22.17,-16.97 -1.55,-1.44 1.58,1.68 z m 0.56,3.92 -0.26,-1.81 -0.01,2.78 z m -12.94,60.7 2.21,1.42 -0.77,-1.99 -0.05,1.29 z m 1.32,-0.88 -1.56,-4.05 0.25,0.71 z"
         fill="none"
         id="path125" />
      <path
         d="m 240.69,289.65 0.62,-1.42 2.43,-6.67 0.95,-2.79 0.11,-0.53 1.59,-7.59 0.75,-4.4 0.04,-0.52 -0.63,-4.75 -3.75,0.5 -1.14,0.61 -3.9,4.84 -0.18,0.27 -2.4,9.3 -0.02,0.1 0.73,7.78 0.32,1.4 2.11,5.92 0.88,1.09 z m -23.7,13.04 0.73,0.93 1.42,-0.06 3.23,-2.89 0.35,-1.98 0.1,-3.82 -1.08,-3.4 -1.6,-1.53 -0.94,-0.76 -2.54,2.05 -0.06,0.08 -0.15,0.09 -1.17,0.95 -1.7,4.12 1.53,3.85 0.71,0.9 0.98,0.86 z m 9.02,-49.15 2.6,-1.05 2.15,-1.03 4.97,-2.86 1.31,-0.91 4.76,-4.67 0.5,-0.95 0.36,-0.8 0.5,-0.82 1.92,-3.64 0.31,-1.11 -0.01,-0.02 0.12,-0.38 0.99,-3.52 0.38,-5.3 -0.73,-3.78 -2.12,-4.19 -2.4,-2.98 -3.56,-2.39 -4.91,7.43 -10.31,16.04 -12.17,19.82 10.83,-1.25 3.19,-1.14 z"
         fill="#f8c20f"
         id="path127" />
      <path
         d="m 219.37,316.36 3.63,-3.26 3.05,-0.83 2.31,-1.21 1.77,-2.46 7.95,-13.03 0.17,-0.31 0.73,-1.69 -0.66,-1.87 -2.11,-5.92 -1.86,-5.22 0.81,-3.96 0.02,-0.1 1.68,-8.19 0.72,-1.11 0.18,-0.27 2.73,-4.21 1.17,-0.63 1.14,-0.61 4.93,-2.61 v -0.1 l 0.35,-8.87 -0.28,-4.17 -0.34,-4.24 -1.83,-5.11 -2.47,4.07 -0.5,0.82 -0.36,0.8 -4.99,11.15 -0.34,0.86 -0.34,0.68 -1.18,2.63 -5.75,11.25 -10.75,20.16 1.19,1.14 1.6,1.53 1.08,3.4 0.38,1.18 -0.48,2.64 -0.35,1.98 -0.55,3.05 -3.07,4.69 0.12,0.39 0.17,2.35 -2.3,3.43 -1.11,3.47 z"
         fill="#1c1585"
         id="path129" />
      <path
         d="m 197.18,278.65 -0.78,0.03 -2.87,4.52 -3,4.61 -0.95,2.14 4.52,0.03 z m 19.48,12.58 3.21,-4.58 4.61,-8.74 5.19,-9.65 4.08,-7.88 2.88,-5.62 0.34,-0.68 0.34,-0.86 1.34,-3.36 1.25,-2.74 0.29,-2.22 -2.26,2.17 -0.89,0.62 -1.31,0.91 -0.3,0.21 -2.74,1.73 -1.93,0.92 -2.15,1.03 -2.6,1.05 -0.76,0.31 -0.56,0.19 -3.19,1.14 -0.82,0.3 -1.87,3.37 -2.5,6.67 -2.4,7.06 -2.64,7.73 -2.36,7.22 -0.81,3.5 2.78,1.49 3.27,0.2 2.3,-1.32 0.15,-0.09 z m 28.73,-55.53 0.24,0.68 1.83,5.11 0.34,4.24 0.49,6.04 -0.56,7 v 0.1 l -0.55,6.86 -0.04,0.52 -0.11,1.38 -0.64,3.02 -1.59,7.59 -0.28,1.34 -0.06,0.02 -0.72,1.96 -2.43,6.67 -0.62,1.42 -1.71,3.92 -0.73,1.69 -0.17,0.31 -3.37,6.14 -2.76,4.35 -1.82,2.54 -1.77,2.46 -2.31,1.21 -0.11,0.05 -0.49,1.03 1.8,0.81 2.52,-0.76 3.2,-2.77 4.94,-6.22 5.33,-8.81 3.54,-6.45 2.28,-4.55 0.66,-1.83 0.12,0.18 4.02,-9.75 2.96,-11.15 1.26,-7.95 0.15,-6.59 -3.54,-7.19 -3.54,-6.63 -3.98,-3.54 -1.67,5.15 -0.12,0.38 z m -26.52,73.1 -0.12,-0.39 -1.76,-5.72 -0.19,-0.61 -0.98,-0.86 -3.86,-3.41 -21.37,-1.21 -1.16,3.03 -0.97,2.47 -1.1,3.43 1.26,1.34 1.55,1.44 0.03,0.24 0.28,0.3 -0.01,1.57 0.26,1.81 -0.27,0.97 -0.01,1.01 -0.73,1.61 -0.49,1.73 11.58,0.44 9.51,1.16 2.78,0.38 2.43,-1.54 0.96,-3.04 0.25,-0.37 2.3,-3.43 z"
         fill="#e61408"
         id="path131" />
      <path
         d="m 190.46,313.2 0.01,-2.78 0.01,-1.57 -0.28,-0.3 -1.58,-1.68 -1.26,-1.34 1.1,-3.43 1.63,-5.05 -4.71,-1.19 -12.25,19.08 0.01,-0.04 -7.4,11.25 0.61,0.88 0.08,-0.06 1.57,-1.69 0.67,-1.05 1.63,-3.91 0.88,-0.04 0.71,-1.15 0.84,-2.84 -0.87,14.01 0.26,4.86 0.19,5.52 0.55,7.37 0.7,5.05 0.63,3.58 0.57,2.33 1.67,5.89 1.12,3.1 1.56,4.05 0.12,0.31 0.77,1.99 -2.21,-1.42 -0.88,-0.45 -1.51,-1.08 -2.48,-1.59 -4.33,-3.03 -1.93,1.42 -0.91,0.95 -2.08,1.29 -2.65,0.21 -4.48,2.05 -1.19,1.03 2.68,0.9 2.66,1.2 1.63,0.69 0.82,-0.36 1.16,-1.35 0.1,-1.41 -0.87,-1.29 0.94,-0.56 3.3,1.63 0.7,2.55 -2.35,4.63 0.58,0.26 0.96,-0.22 0.37,-0.62 0.65,-2.05 2.05,-0.93 2.85,0.69 1.23,2.58 -3.14,-0.27 -1.57,0.44 -0.74,1.32 -0.16,1.74 1.07,0.63 0.09,2.42 1.72,1.12 5.58,-0.09 0.93,-0.98 0.11,-1.94 -0.56,-1.48 -1.95,-0.9 2.68,-1.59 3.33,2.16 1.05,2.76 3.42,-0.43 4.73,1.28 1.03,-1.96 0.35,-3.42 -5.76,-2.56 -6.52,-3.64 -0.22,-0.14 h 1.33 l -2.93,-15.08 0.89,-14.48 4.29,-16.26 5.86,-12.9 0.73,-1.61 z"
         fill="#f8c20f"
         id="path133" />
      <path
         d="m 177.79,372.93 1.39,0.72 0.05,-1.29 -0.12,-0.31 -1.31,-3.34 -0.25,-0.71 -1.12,-3.1 -0.76,-2.11 -0.91,-3.78 -0.57,-2.33 -0.63,-3.58 -0.5,-2.83 -0.64,-6.32 -0.11,-3.27 -0.19,-5.52 -0.26,-4.86 -0.03,-0.5 0.39,-9.57 -1.04,0.05 -0.88,0.04 -1.63,3.91 -0.67,1.05 -0.71,1.12 -0.86,0.57 -0.08,0.06 -1.48,0.99 -1.19,1.54 -1.48,2.42 -1.21,2.1 -0.35,0.2 -3.48,5.4 0.37,1.54 4.23,6.26 2.27,3.25 1.94,6.08 2.94,9.92 4.79,3.45 1.7,1.22 1.51,1.08 z"
         fill="#e61408"
         id="path135" />
      <path
         d="m 267.46,296.93 -2.08,2.55 0.55,1.75 -0.33,4.03 -2.12,8.81 1.27,0.4 0.77,-0.59 1.27,-3.49 1.18,-6.4 0.32,-6.98 z"
         fill="#f8c20f"
         id="path137" />
      <path
         d="m 233.53,330.36 -4.46,-2.41 -5.04,-0.14 -4.17,-0.23 -4.18,-1.32 0.33,1.47 3.42,2.25 1.83,2.16 -1.92,1.14 -2.56,2.53 0.04,1.24 3.57,0.32 3.33,-0.22 -1.63,3.66 -0.23,2.16 0.48,0.4 3.25,-2.48 4,-2.19 2.57,-2.55 1.08,-1.78 0.65,-1.05 -0.4,-1.14 z"
         fill="#e61408"
         id="path139" />
      <path
         d="m 254.01,325.81 -2.04,0.96 -3.23,-0.6 -1.05,-1.02 -1.3,-1.96 -4.22,-2.17 -6.94,-0.84 -0.82,0.27 1.24,1.91 3.16,2.29 2.88,1.99 2.61,0.75 2.4,-0.09 1.32,0.17 -0.18,0.35 -0.02,0.27 -4.92,1.72 -4.71,0.48 -4.66,-0.07 v 0.14 l -0.04,1.82 0.4,1.14 0.02,0.07 2.87,-0.56 2.29,0.18 -0.35,0.51 -0.22,0.2 -1.61,0.8 -3.61,4.79 -0.96,1.31 -0.73,5.14 0.52,0.14 2.96,-2 1.46,-2.43 1.86,-1.52 0.68,-1.98 0.46,-1.52 0.48,-1.42 0.46,-0.88 0.5,-0.7 0.73,-0.73 1.64,-0.79 5.56,-1.7 0.35,-0.03 4.48,-1.65 0.14,0.05 -3.08,4.7 -2.84,3.86 -0.48,6.53 0.22,2.6 2.48,-2.31 2.97,-4.22 2.63,-5.49 -0.24,-5.39 -0.01,-0.01 0.47,-1.38 1.83,-2.06 2.15,-2.27 -2.46,0.45 z"
         fill="#f8c20f"
         id="path141" />
      <path
         d="m 210.28,324.05 c 0.72,-0.02 2.08,-0.84 2.48,-1.42 0.6,-0.91 0.39,-2.23 1.08,-2.99 0.98,-1.06 2.7,-1.41 3.97,-2 1.76,-0.81 3.1,-1.89 4.42,-3.3 0.87,-0.93 1.75,-1.54 2.89,-0.72 0.85,0.62 1.62,1.5 2.74,1.6 2.62,0.24 5.2,-0.67 7.75,-1.04 2.87,-0.42 5.81,0.94 8.62,0.09 2.34,-0.71 3.28,2.06 4.1,3.67 1.43,2.79 4.22,3.52 6.51,5.32 0.56,0.45 0.49,0.82 0.19,1.37 -0.37,0.67 -2.07,1.27 -2.73,1.53 -0.93,0.37 -2.29,0.13 -3.15,-0.32 -1.07,-0.55 -1.43,-1.62 -2.2,-2.48 -0.74,-0.81 -1.87,-0.96 -2.75,-1.55 -1,-0.67 -2.07,-1.22 -3.24,-1.54 -1.27,-0.34 -2.58,-0.15 -3.88,-0.21 -1.19,-0.06 -2.34,-0.49 -3.53,-0.49 0.32,1.84 2.62,3.76 4.07,4.75 0.84,0.58 1.74,1.06 2.58,1.65 0.9,0.63 1.81,1.34 2.92,1.54 1.54,0.27 2.88,0.06 4.43,0.06 -0.71,1.43 -3.83,1.85 -5.19,2.11 -2.36,0.45 -4.8,0.39 -7.19,0.38 -2.06,0 -3.08,-1.91 -5,-2.33 -1.06,-0.23 -2.16,-0.22 -3.24,-0.3 -1.09,-0.08 -2.2,0.16 -3.26,0.02 -1.94,-0.25 -3.89,-0.14 -5.75,-0.81 -0.29,-0.1 -2.98,-1.11 -2.82,-0.28 0.29,1.49 1.35,2.78 2.72,3.42 1.12,0.52 2.69,0.87 2.97,2.28 -1.59,0.24 -3.2,2 -4.15,3.18 -0.41,0.52 -0.34,0.98 -0.35,1.63 -0.01,0.86 2.72,0.9 3.22,0.93 1.2,0.05 2.34,-0.24 3.52,-0.24 -0.01,0.88 -0.74,1.5 -1.01,2.29 -0.32,0.94 -0.51,1.89 -0.45,2.89 0.07,1.38 1.14,1.04 1.91,0.37 2.16,-1.91 4.56,-3.21 7.03,-4.67 1.35,-0.81 3.18,-2.94 3.03,-4.63 -0.72,0.66 -1.14,1.56 -1.79,2.28 -0.86,0.95 -2,1.73 -3.06,2.44 -2.25,1.51 -4.46,2.6 -6.41,4.54 -0.34,-1.08 0.15,-2.08 0.65,-3.01 0.35,-0.64 0.87,-2.26 1.5,-2.69 1.35,-0.93 2.96,-1.52 4.51,-2.03 0.46,-0.15 1.26,-0.34 0.62,-0.93 -0.8,-0.74 -2.83,0.88 -3.62,1.18 -1.71,0.65 -3.69,1.43 -5.54,1.46 -1.12,0.02 -2.3,-0.22 -3.38,-0.49 0.2,-1.02 1.39,-1.9 2.13,-2.53 1.9,-1.59 4.09,-2.09 6.48,-2.43 0.56,-0.08 3.24,-0.16 2.64,-1.28 0.7,-0.13 1.56,0.39 2.25,0.5 -0.26,-1.27 -1.88,-1.67 -2.94,-1.89 -1.22,-0.24 -2.56,-0.36 -3.81,-0.36 1.01,-0.54 2,0.01 3.04,-0.06 0.96,-0.06 1.71,-0.12 2.68,0.01 0.99,0.13 1.77,0.7 2.53,1.3 0.82,0.66 1.74,0.99 2.75,1.25 -0.33,0.07 -0.68,0.13 -1,0.25 0.82,0.69 2.26,0.59 3.24,0.46 0.68,-0.09 1.35,-0.19 2.03,-0.22 0.7,-0.03 1.54,-0.38 2.22,-0.24 -0.51,-0.46 -1.63,-0.25 -2.25,-0.25 0.89,-0.47 1.98,-0.5 2.96,-0.53 0.48,-0.02 0.86,0.38 1.34,0.35 0.57,-0.04 1.14,-0.07 1.71,-0.07 -1.54,0.74 -3.12,0.89 -4.5,2 -0.22,-1.52 -4.76,-0.54 -5.75,-0.5 0.27,0.68 1.12,0.71 1.75,0.73 0.31,0.01 1.76,-0.21 2,0.02 0.45,0.51 -0.59,0.53 -0.76,0.57 -0.64,0.15 -1.08,0.61 -1.45,1.13 a 137.1,137.1 0 0 1 -2.47,3.34 c -0.65,0.85 -1.9,1.76 -2.08,2.86 -0.3,1.74 -0.41,3.59 -0.49,5.36 2.06,0.05 4,-1.97 5.08,-3.54 0.65,-0.96 1.42,-1.63 2.15,-2.52 2.02,-2.5 1.05,-7.04 4.83,-8.11 3.09,-0.88 6.56,-1.37 9.44,-2.83 -0.21,0.71 -0.7,1.29 -1.11,1.88 -0.53,0.75 -0.92,1.58 -1.43,2.33 -0.81,1.19 -2.01,2.14 -2.48,3.54 -0.43,1.31 -0.39,3.1 -0.43,4.48 -0.05,1.67 -0.17,3.37 0.19,5.02 1.07,-0.36 1.75,-1.31 2.47,-2.11 1.01,-1.11 1.98,-2.18 2.78,-3.46 1.39,-2.23 3.31,-5.09 3.48,-7.78 0.07,-1.08 -0.34,-2.11 -0.42,-3.18 -0.2,-2.41 1.5,-3.83 3.23,-5.23 0.61,-0.49 1.23,-0.56 1.95,-0.28 1,0.39 1.91,0.6 2.97,0.74 0.84,0.11 1.83,-0.5 2.4,-1.04 0.69,-0.64 0.62,-1.34 0.36,-2.25 -0.05,-0.18 -0.35,-0.99 -0.23,-1.17 0.06,-0.11 1.01,-0.4 1.17,-0.55 0.54,-0.54 0.6,-1.43 0.54,-2.15 -0.08,-1.01 0.02,-2.02 -0.08,-3.02 -0.08,-0.77 -0.74,-1.29 -0.87,-2.02 1.11,0.28 2.37,0.89 3.52,0.84 0.85,-0.04 1.71,-0.61 1.04,-1.49 -0.94,-1.22 -3.03,-1.49 -4.27,-2.38 -0.45,-0.32 -0.02,-1.6 0.05,-2.01 0.2,-1.26 0.37,-2.53 0.5,-3.8 0.28,-2.71 0.41,-5.43 0.41,-8.16 -0.83,0.14 -1.79,1 -2.35,1.57 -0.74,0.74 -1.29,1.87 -1.11,2.96 0.36,2.06 0.52,4.66 -0.07,6.67 -0.33,1.12 -0.65,2.04 -1.97,1.62 -0.83,-0.26 -1.51,-0.83 -2.28,-1.23 -0.87,-0.46 -1.84,-0.75 -2.79,-1 -1.77,-0.48 -3.82,-0.46 -5.46,-1.29 -0.54,-0.28 -0.33,-0.79 -0.24,-1.27 0.25,-1.34 1.43,-2.73 2.14,-3.86 0.68,-1.09 1.89,-2.8 1.61,-4.17 -2.01,1 -2.03,6.93 -5,6.25 0.44,-1.27 2.14,-1.73 2.5,-3 -0.24,0 -0.77,0.18 -0.94,-0.07 -0.29,-0.43 -0.06,-1.67 -0.06,-2.18 -0.84,0.47 -1.38,1.51 -2.5,1.25 v 3.5 c -0.32,-0.03 -1.96,-0.32 -1.54,0.55 0.09,0.18 0.52,0.38 0.54,0.45 0.12,0.34 -0.28,0.98 -0.39,1.3 -0.25,0.69 0.4,0.81 0.8,0.33 0.42,-0.48 0.34,-1.28 0.34,-1.88 2.31,1.37 -0.23,3.94 -1.15,5.29 -1.28,1.89 -2.57,3.87 -4.38,5.29 -0.68,0.54 -2.35,1.1 -3.1,0.38 -0.22,-0.21 -0.49,-0.25 -0.51,-0.43 -0.02,-0.25 0.52,-0.62 0.41,-0.97 -0.04,-0.15 -0.14,-0.39 -0.29,-0.46 -0.12,-0.05 0.29,-0.76 0.31,-0.86 0.1,-0.44 -1,-0.9 -1.42,-0.75 -0.52,0.18 -0.15,1.07 0.23,1.16 0.45,0.11 0.48,0.07 0.42,0.5 -0.03,0.21 -0.47,0.26 -0.59,0.42 -0.16,0.21 0.06,0.59 0.01,0.89 -0.04,0.25 -0.59,0.29 -0.8,0.3 -1.48,0.08 -2.77,0.12 -4.24,0.4 -0.86,0.16 -1.73,0.33 -2.6,0.46 -0.68,0.11 -1.43,0.03 -2.06,0.37 0.04,-0.29 -0.13,-0.5 -0.25,-0.75 1.34,-0.47 2.27,-1.71 3.21,-2.7 1.1,-1.16 2.17,-2.32 3.12,-3.61 1.05,-1.42 2.08,-2.86 3.08,-4.32 0.88,-1.28 1.54,-2.72 2.59,-3.88 -0.02,0.86 0.61,0.84 1.21,0.65 0.14,-0.04 0.08,-0.61 0,-0.74 -0.16,-0.29 -0.41,-0.5 -0.71,-0.65 0.54,-0.6 1.03,-1.24 1.71,-1.7 0.47,-0.32 1.17,-0.68 1.29,-1.3 h -1 c 0.04,-1.13 0.74,-2.13 1.24,-3.1 0.65,-1.24 1.36,-2.45 1.96,-3.71 1.17,-2.47 2.31,-4.98 3.43,-7.48 1.07,-2.38 2.01,-4.82 2.91,-7.27 0.48,-1.31 1,-2.62 1.4,-3.96 0.37,-1.26 0.91,-2.67 1.06,-3.97 0.55,0.22 1.05,0.46 1.65,0.49 0.23,0.01 0.1,1.47 0.1,1.76 0.81,-0.13 1.12,-1.08 0.75,-1.75 0.43,0.15 1.45,0.63 1.77,0.09 0.5,-0.84 -0.77,-1.19 -1.27,-1.34 0.39,-1.34 1.72,-2.61 1.75,-4 -0.33,0.09 -0.66,0.2 -1,0.25 -0.08,-0.5 -0.24,-1 -0.25,-1.5 -0.46,0.34 -0.67,1.2 -0.75,1.75 -0.34,-0.05 -0.67,-0.16 -1,-0.25 0.02,0.85 0.44,1.65 0.45,2.5 0,0.13 -0.1,1.28 -0.26,1.24 -0.47,-0.12 -0.95,-0.27 -1.45,-0.24 0.12,-2.86 0.71,-5.67 1.2,-8.48 0.49,-2.81 0.55,-5.67 0.55,-8.52 1.38,0.72 2.14,2.25 2.79,3.59 0.91,1.88 0.53,4.64 0.48,6.66 -0.03,1.19 -0.21,2.41 -0.33,3.59 -0.14,1.32 0.12,2.58 0.06,3.89 1.38,-0.9 0.2,-3.97 0.31,-5.26 0.22,-2.42 0.78,-4.78 0.44,-7.23 -0.31,-2.21 -1.6,-4.07 -2.92,-5.8 -1.34,-1.73 -2.4,-3.47 -3.4,-5.4 -2.16,-4.17 -3.85,-8.65 -7.62,-11.62 -1.75,-1.37 -1.31,-3.9 -1.65,-5.87 -0.35,-2.04 -0.88,-4.28 -2.14,-5.97 -1.61,-2.14 -3.79,-4.89 -6.43,-5.8 -0.34,-0.11 -2.87,4.32 -3.01,4.54 -1.6,2.49 -3.57,4.99 -4.82,7.68 0.72,-0.44 1.39,-1.15 2.19,-1.43 0.86,-0.3 2,-0.42 2.91,-0.54 1.84,-0.25 3.71,0.98 5.4,1.48 -1.22,0.44 -3.14,0 -4.43,0 -1.42,0 -3.18,-0.26 -4.46,0.51 -0.58,0.35 -2.18,0.8 -2.35,1.49 1.45,-0.06 2.77,-1.29 4.25,-1.53 1.59,-0.25 3.18,-0.04 4.75,0.28 -0.96,1.95 -3.38,2.09 -5.25,2.5 0.94,1.1 3.28,0.25 4.5,0.25 -0.92,0.92 -1.76,1.64 -3.12,1.37 -1.33,-0.25 -1.49,-1.83 -2.63,-2.12 0,1.52 1.5,3.06 3,3 -0.32,0.65 -2.35,1.83 -2.19,2.38 0.08,0.26 0.5,0.56 0.77,0.57 0.84,0.02 2,-0.08 2.7,-0.61 0.71,-0.54 1.41,-1.2 2.23,-1.58 0.19,0.8 -0.73,2.23 -1,3 0.65,0.33 1.82,-0.27 2.28,-0.71 0.72,-0.71 1.2,-1.33 1.33,-2.37 0.25,-1.84 -0.09,-3.61 -0.36,-5.41 0.73,0 2.41,0.22 2.55,1.13 0.54,3.68 -0.72,7.49 -2.24,10.81 -1.54,3.36 -3.91,5.99 -6.88,8.15 -2.86,2.08 -5.93,3.4 -9.13,4.81 -1.71,0.75 -3.64,1.11 -5.45,1.51 -1.75,0.39 -4.32,1.12 -6.1,0.59 0.47,-1.66 1.67,-3.15 2.55,-4.6 0.96,-1.57 1.94,-3.16 3.15,-4.56 0.69,-0.8 2.18,-0.4 3.04,-0.84 -0.23,-0.78 -1.08,-0.75 -1.75,-0.75 0.25,-0.54 0.23,-1.04 0.54,-1.58 0.35,-0.59 1.64,-0.59 2.22,-0.85 1.05,-0.47 2.21,-1.25 2.74,-2.31 -1.29,-0.28 -2.1,-0.07 -3.25,0.5 0.43,-1.53 1.52,-2.79 2.39,-4.08 0.83,-1.24 2.17,-2.36 2.36,-3.92 -0.99,0.88 -1.68,2.31 -2.44,3.39 -1,1.43 -1.87,2.95 -2.82,4.41 -1.82,2.8 -3.52,5.67 -5.31,8.49 -3.39,5.36 -6.82,10.68 -10.16,16.08 -3.56,5.74 -7.16,11.49 -10.85,17.15 -1.83,2.82 -3.6,5.67 -5.42,8.51 -0.93,1.45 -1.82,2.94 -2.76,4.38 -0.83,1.27 -2.01,2.62 -2.5,4.06 0.85,-0.18 2.35,0.95 3,1.43 0.33,0.25 0.94,0.67 0.86,1.14 -0.31,1.76 -1.49,3.44 -2.05,5.14 -0.42,1.31 -1.67,1.51 -2.82,1.79 0.04,-1.23 0.67,-2.34 1.16,-3.43 0.32,-0.71 1.18,-2.34 0.39,-3.01 -0.57,-0.48 -1.13,-0.97 -1.8,-1.31 -0.16,0.32 -0.43,0.65 -0.5,1 1.14,0.18 2,0.87 1.56,2.07 -0.71,1.89 -1.23,4.41 -2.58,5.96 -1.37,1.57 -2.91,2.79 -4.09,4.54 -1.25,1.86 -2,3.89 -2.65,6.02 -0.63,2.09 -1.25,4.19 -1.76,6.31 -0.27,1.12 -0.54,2.24 -0.75,3.37 -0.21,1.07 -0.69,2.12 -0.72,3.22 -0.48,-0.9 -0.34,-2.06 -0.28,-3.04 0.08,-1.45 0.18,-2.9 0.27,-4.35 0.09,-1.33 0.37,-2.61 0.5,-3.93 0.14,-1.37 0.59,-2.81 0.52,-4.19 -1.17,0.31 -1.27,2.04 -1.5,3 -0.25,-0.43 -0.8,-0.33 -0.85,0.16 -0.05,0.54 0.32,1.23 -0.2,1.63 -0.52,0.39 -1.2,0.46 -1.57,1.05 -0.3,0.48 -0.03,1.03 -0.16,1.54 -0.34,1.36 -1.06,2.85 -2.15,3.73 -0.22,0.14 -0.44,0.26 -0.69,0.34 -0.33,0.15 -0.33,-0.31 -0.61,-0.22 -0.28,0.1 -0.49,0.83 -0.64,1.07 -0.46,0.75 -1,1.44 -1.45,2.19 -0.93,1.55 -1.79,3.21 -2.9,4.65 -0.43,0.56 0.69,1.95 0.89,2.56 0.43,1.28 0.83,2.57 1.24,3.86 0.7,2.23 1.02,4.87 2.11,6.93 -1.37,-0.88 -2.19,-3.25 -2.93,-4.62 -0.98,-1.81 -2.23,-3.49 -3.07,-5.38 -0.47,0.25 -0.72,0.57 -1,1 1,0.55 1.52,1.75 2.09,2.67 0.78,1.26 1.58,2.51 2.29,3.81 1.27,2.33 2.79,4.67 3.77,7.14 0.45,1.14 0.77,2.32 1.01,3.52 0.27,1.34 0.96,2.55 1.37,3.84 0.45,1.39 0.9,2.78 1.3,4.18 0.35,1.2 1.01,2.56 0.92,3.83 -1.78,-0.21 -2.32,-2.76 -2.68,-4.16 -0.75,-2.84 -1.59,-5.67 -2.37,-8.51 -0.8,-2.92 -2.22,-5.4 -3.85,-7.92 -0.82,-1.26 -1.64,-2.52 -2.5,-3.75 -0.67,-0.96 -2.08,-2.14 -2.09,-3.4 -1.1,0.51 0.01,1.75 0.45,2.32 1.31,1.74 2.46,3.56 3.64,5.38 1.13,1.75 2.47,3.19 3.13,5.21 0.67,2.02 1.13,4.13 1.71,6.18 0.64,2.25 1.6,4.58 2.02,6.88 0.18,1.03 -0.71,1.88 -1.5,2.37 -0.82,0.5 -1.27,1.61 -2.13,1.93 -0.9,0.35 -1.84,0.68 -2.82,0.72 0.17,0.33 0.33,0.67 0.5,1 -0.5,0.15 -1,0.15 -1.5,0 0.28,-0.42 0.6,-0.76 0.75,-1.25 -1.16,0.56 -2.41,0.9 -3.56,1.47 -1.09,0.54 -2.45,1.36 -3.69,0.78 0.03,1.48 1.57,1.91 2.71,2.37 0.42,0.17 0.86,0.01 1.29,0.08 0.4,0.06 0.73,0.39 1.08,0.56 0.95,0.49 2.05,0.77 3.06,1.13 0.27,0.09 1.27,-0.68 1.44,-0.93 0.56,-0.78 0.7,-1.06 0.79,-2.01 0.06,-0.69 -0.19,-1.17 -0.63,-1.7 1.89,-0.52 5.26,2.94 3.63,4.58 -0.76,0.76 -2.04,1.26 -2.24,2.5 -0.2,1.28 0.96,2.01 2.1,1.42 -0.4,-0.28 -0.77,-0.25 -1.25,-0.25 0.26,-0.92 1.04,-1.83 2,-2 v 1 c 0.54,-0.39 0.52,-1.14 0.98,-1.54 0.67,-0.58 1.27,-0.75 2.14,-0.61 1.47,0.24 2.91,1.36 3.13,2.9 -1.23,-0.21 -3.51,-1.16 -4.66,-0.1 -0.48,0.44 -1.32,2.37 -1,3 0.28,0.56 0.66,0.98 1.06,1.47 0.27,0.33 0.04,0.87 0.13,1.25 0.15,0.62 0.18,1.34 0.7,1.79 0.71,0.62 1.85,0.59 2.73,0.59 1.23,0 2.51,0.15 3.73,-0.11 1.05,-0.21 1.71,-0.81 1.8,-1.91 0.07,-0.92 0.26,-2.78 -0.66,-3.36 -0.51,-0.33 -0.97,-0.53 -1.58,-0.62 1.17,-1 3.23,-0.85 4.36,0.25 0.71,0.69 1.18,1.24 1.48,2.19 0.2,0.62 -0.79,1.35 -1.09,1.81 0.88,-0.11 1.57,-0.07 1.89,0.91 0.16,0.5 0.56,0.47 0.75,0 0.15,-0.38 0.17,-0.78 0.34,-1.17 0.42,-0.98 1.51,-0.67 2.21,-0.25 0.51,0.3 0.82,0.39 1.03,0.94 0.14,0.36 0.05,0.94 0.03,1.33 1.22,0.04 1.26,-1.05 1,-2 0.19,-0.04 2.03,0.32 1.99,0.58 -0.04,0.26 0.02,0.48 0.13,0.73 0.25,0.54 0.49,0.84 1.08,0.75 0.56,-0.09 0.66,-0.59 0.6,-1.07 -0.12,-0.92 0.07,-1.58 0.26,-2.47 0.26,-1.19 -0.26,-3.22 1.27,-3.79 1.47,-0.55 3.07,-0.57 4.54,-1.13 1.42,-0.54 2.79,-1.27 4.05,-2.12 2.61,-1.74 5.19,-4.42 6.62,-7.22 0.72,-1.41 1.08,-3.01 1.5,-4.54 0.46,-1.69 0.28,-3.37 0.57,-5.08 0.27,-1.59 0.83,-3.13 1.14,-4.71 0.37,-1.85 0.7,-3.71 1.25,-5.52 0.27,-0.88 0.63,-2.29 -0.61,-2.45 -0.49,-0.07 -1.24,-0.02 -1.69,-0.24 -0.79,-0.39 -1.04,-0.35 -1.15,-1.21 -0.22,-1.79 -1.06,-3.02 -1.98,-4.52 -0.29,-0.48 0.04,-0.96 0.08,-1.48 0.25,-2.71 -2.17,-3.58 -4.4,-4.09 -0.54,-0.12 -1.03,-0.42 -1.53,-0.66 -0.58,-0.28 -0.33,-0.86 -0.09,-1.25 0.34,-0.54 0.44,-0.95 1.05,-1.13 0.59,-0.17 1.17,-0.35 1.76,-0.54 0.75,-0.24 1.17,-1.08 1.57,-1.69 0.56,-0.86 1.34,-1.54 1.95,-2.36 0.41,-0.55 0.37,-1.41 0.71,-2.02 0.54,-0.82 0.86,-1.75 0.86,-2.78 m -38.25,60.25 c -0.42,-0.31 -2.78,-0.75 -2.71,-1.29 0.06,-0.49 0.32,-0.96 0.41,-1.45 0.14,-0.7 0.28,-1.04 0.95,-1.26 0.83,-0.27 2.46,-0.4 2.87,0.57 0.18,0.44 0.66,1.16 0.02,1.49 -0.4,0.2 -1.13,-0.16 -1.54,-0.3 0.6,0.73 1.05,1.26 1.24,2.2 0.13,0.66 -0.29,1.45 -0.49,2.05 0.58,-0.38 1.03,-0.86 1.61,-1.24 0.43,-0.28 1.65,0.04 2.14,0.24 -0.2,-0.23 -1.28,-1.46 -0.81,-1.77 0.74,-0.48 1.43,-1.08 2.26,-0.36 0.67,0.58 0.54,1.76 0.49,2.55 -0.05,0.87 -0.54,1.2 -1.37,1.29 -1.64,0.19 -3.37,0.04 -5.02,0.03 -0.62,0 -1.68,-0.63 -1.61,-1.37 0.07,-0.7 0.94,-1.21 1.56,-1.38 m 12.75,-1.5 c 0.41,-0.17 1.5,0.09 1.72,-0.42 0.28,-0.65 0.51,-1.46 -0.32,-1.89 -0.76,-0.39 -1.31,-0.9 -1.99,-0.2 -0.72,0.75 -0.35,1.09 -0.16,2 -1.21,-0.16 -2.15,-1.04 -3.19,-1.6 -0.76,-0.41 -2.17,-0.9 -2.31,-1.9 0.5,-0.04 1.24,-0.03 1.51,-0.55 0.25,-0.47 0,-1.2 -0.01,-1.7 1.79,0.26 3.51,1.69 5.02,2.61 1.95,1.19 4.1,2.04 6.03,3.26 0.42,0.27 -0.5,1.02 -0.34,1.5 0.22,0.68 0.49,1.24 0.79,1.87 -1.19,-0.04 -2.24,-0.73 -3.29,-1.21 -1.19,-0.52 -2.35,-1.1 -3.46,-1.77 m -2,0.25 c 0.93,0.03 1.76,0.77 2.5,1.25 -0.41,0.42 -0.96,0.84 -1.6,0.5 -0.48,-0.26 -0.71,-1.27 -0.9,-1.75 m 8.75,1.5 c -0.25,-0.14 -0.19,-0.84 0.08,-0.71 0.56,0.27 0.39,0.47 -0.08,0.71 m -2.25,-1 c -0.1,-0.25 -0.23,-0.44 -0.5,-0.5 0.12,-0.14 0.55,-0.51 0.5,-0.75 -0.09,-0.4 -0.72,-0.31 -0.86,-0.05 -0.4,0.73 0.06,1.33 0.86,1.3 m -4.5,-2.75 c 0.57,0.18 1.12,0.65 1.25,1.25 -0.63,0.01 -1.66,-0.48 -1.25,-1.25 m -1.25,-3.25 c 1.1,-0.48 3.51,1.32 4.44,1.77 0.99,0.49 4.06,1.16 4.31,2.48 -1.63,0.01 -3.09,-0.93 -4.46,-1.7 -1.45,-0.82 -2.89,-1.65 -4.29,-2.55 m -8,4 c 0.26,-1.44 -0.97,-2.79 -1.5,-4 1.36,0.05 2.79,1.38 3.89,2.1 0.2,0.13 0.43,0.39 0.51,0.61 0.2,0.59 -2.46,1.28 -2.9,1.29 m 12.25,-3.5 c 0.43,-0.33 0.99,-0.25 1.5,-0.25 -0.9,-1.58 -3.46,-0.33 -4.75,-1.25 0.5,-0.79 1.93,-0.91 2.75,-0.68 1.1,0.31 2.13,0.91 3.22,1.3 2.03,0.74 4.12,-0.8 5.65,-1.96 1.91,-1.43 4.33,-2.24 6.5,-0.8 1.13,0.75 0.6,1.97 -0.08,2.74 -0.96,1.06 -2.75,1.6 -4.07,2.02 -1.57,0.5 -3.24,0.9 -4.9,0.86 -2.19,-0.05 -4.01,-0.82 -5.82,-1.98 m -5.62,1.75 c 0.21,-0.14 0.15,-0.94 0,-1.13 -0.24,-0.29 -0.89,-0.28 -1.2,-0.17 -0.25,0.09 -0.31,0.88 -0.14,0.99 0.59,0.38 0.67,0.47 1.34,0.31 m 20.87,-4 c -0.52,-0.91 -2.05,-0.85 -2.94,-0.78 -2.36,0.18 -3.84,2.25 -6.01,2.94 -0.49,0.16 -1.07,0.37 -1.6,0.3 -0.56,-0.07 -1.13,-0.31 -1.7,-0.21 1.27,1.59 4.48,0.35 5.88,-0.39 1.07,-0.56 2.06,-1.23 3.18,-1.68 1.14,-0.46 2.01,-0.38 3.19,-0.18 m -25.5,0.75 c 0.72,0.2 1.38,0.59 1.75,1.25 -0.75,0.4 -2.25,-0.28 -1.75,-1.25 m 5.5,0.75 c -1.34,-0.27 -2.45,-1.23 -3.58,-1.93 -1.16,-0.71 -2.49,-1.33 -3.17,-2.57 1.58,0.45 2.86,1.6 4.29,2.36 0.59,0.31 2.7,1.22 2.46,2.14 m -8,-0.25 c 0.02,-0.96 0.65,-2.05 1.5,-2.5 0.19,0.91 -0.76,2.08 -1.5,2.5 m -6.5,-3 c 1.23,0.05 3.29,1.36 3.75,2.5 -0.87,0 -1.99,0.2 -2.82,-0.03 -0.62,-0.17 -0.92,-1.92 -0.93,-2.47 m 13.25,-2 c 1.56,-0.32 2.89,1.96 4.5,2 -1.16,-0.57 -2.1,-1.32 -3.15,-2.04 -0.63,-0.43 -1.88,-1.05 -1.85,-1.96 1.17,0 1.96,0.54 3,1 -0.17,-0.33 -0.33,-0.67 -0.5,-1 1.12,0.21 1.94,1.22 2.72,1.97 0.94,0.9 2.22,1.62 3.53,1.78 -0.46,-0.76 -1.54,-1.06 -2.29,-1.43 -1.09,-0.54 -1.82,-1.52 -2.7,-2.33 -0.74,-0.69 -1.73,-1.32 -2.72,-1.58 -0.67,-0.18 -1.82,-0.2 -1.8,-1.16 2.06,0 4.5,-0.49 5.95,1.27 1.27,1.54 2.21,3.79 4.55,3.73 -1.05,-0.52 -1.72,-1.11 -2.57,-1.94 -0.72,-0.7 -1.03,-1.95 -1.62,-2.78 -1.35,-1.91 -4.13,-1.04 -6.07,-1.04 0.66,-0.57 1.62,-0.53 2.36,-0.94 0.9,-0.51 1.93,-0.69 2.95,-0.6 2.07,0.19 3.4,2.06 3.69,4.03 0.44,-0.82 0.07,-1.9 -0.29,-2.69 -0.57,-1.27 -1.32,-1.6 -2.58,-2.07 -1.03,-0.38 -2.04,0.07 -3,0.43 a 9.05,9.05 0 0 1 -3.13,0.59 c 0.04,-0.31 0.2,-0.31 0.4,-0.5 0.1,-0.04 0.19,-0.03 0.29,0.01 0.24,-0.03 -0.17,-0.72 -0.19,-0.77 2.77,-0.12 5.98,-1.96 8.13,0.72 0.5,0.63 0.84,1.21 1.21,1.92 0.28,0.55 0.08,1.31 0.24,1.9 0.36,1.33 0.89,2.75 2.17,3.46 -0.65,-1.28 -1.18,-2.21 -1.25,-3.7 -0.04,-1.01 0.26,-3.08 1.5,-3.3 -0.19,0.56 -0.31,1.14 -0.45,1.71 -0.1,0.4 0.26,1.19 0.35,1.58 0.25,1.07 0.69,1.8 1.6,2.46 -0.42,-0.82 -1.16,-1.96 -1.09,-2.91 0.07,-0.83 0.08,-2.89 1.34,-2.84 -0.1,0.6 -0.4,1.16 -0.56,1.75 -0.19,0.71 0.09,1.27 0.3,1.97 0.25,0.84 1.67,2.04 2.51,2.28 -0.42,-0.39 -0.82,-0.79 -1.24,-1.19 -0.38,-0.36 -0.55,-1.09 -0.76,-1.56 0.64,0.38 1.02,1.07 1.65,1.48 0.65,0.42 1.35,0.76 2.08,1.02 1.08,0.38 2.76,0.65 3.01,2 -0.96,-0.02 -1.73,-0.15 -2.71,-0.01 -3.01,0.44 -4.72,4.14 -8.08,3.63 -1.95,-0.3 -3.37,-1.61 -5.43,-1.2 -0.46,0.09 -1.13,0.37 -1.59,0.29 -0.61,-0.1 -0.9,-0.54 -1.34,-0.96 -0.67,-0.64 -1.08,-1.51 -1.07,-2.48 m -20.25,3.5 c -0.38,-0.01 -1.71,0.06 -1.9,-0.42 -0.11,-0.28 -0.37,-0.66 -0.29,-0.96 l 0.33,-1.29 c 0.08,-0.29 0.51,-0.47 0.76,-0.55 0.18,-0.06 0.79,1.19 1.13,1.28 0.32,0.09 0.66,0.09 0.97,0.19 v -1 c 0.5,0.14 1.35,0.13 1.49,0.67 0.16,0.62 0.45,1.41 -0.45,1.54 -0.57,0.08 -0.21,1.06 -0.83,1.21 -0.58,0.14 -1.22,0.17 -1.21,-0.67 m 10.75,-0.25 c 0.22,-0.29 0.4,-0.61 0.75,-0.75 -0.05,0.45 -0.23,0.8 -0.75,0.75 m 32.25,-0.25 c -0.39,-0.53 -0.51,-1.19 -0.8,-1.77 -0.41,-0.82 -1.26,-1.45 -1.89,-2.09 -0.47,-0.47 -1.43,-0.55 -2.03,-0.77 -0.85,-0.31 -1.7,-0.62 -2.52,-1.02 -0.77,-0.38 -1.29,-2.05 -0.57,-2.73 0.34,-0.32 1.08,-0.4 1.48,-0.15 0.29,0.19 0.44,0.68 0.61,0.96 0.34,0.58 0.69,-0.82 0.66,-1.01 -0.1,-0.75 -0.43,-0.85 -1.05,-1.27 -0.69,-0.46 -2.42,-0.91 -2.7,-1.74 -0.34,-0.96 -0.4,-2.15 -0.68,-3.16 -0.34,0.69 0.23,1.73 -0.5,2.25 -0.54,-1.04 -1.32,-3.14 -0.75,-4.25 0.34,0.38 0.42,1.02 0.5,1.5 0.26,-0.51 0.34,-1.14 0.49,-1.7 0.09,-0.33 1.36,0.56 1.51,0.7 0.14,-1.21 -0.81,-1.61 -1.72,-1.99 -0.33,-0.14 -0.94,0.52 -1.14,0.73 -0.33,0.36 -0.57,0.77 -0.65,1.26 -0.69,-0.52 -0.4,-1.94 -0.01,-2.54 0.27,-0.43 0.67,-0.83 0.89,-1.28 0.29,-0.59 0.17,-1.12 0.14,-1.78 -0.05,-0.89 -1.06,-1.67 -1.82,-2.06 -0.68,-0.36 -0.77,-0.38 -1.44,-0.01 -0.54,0.29 -0.7,0.57 -0.81,1.18 -0.14,0.77 0.63,0.44 1.14,0.4 0.65,-0.06 0.6,0.65 0.67,1.12 0.12,0.8 -0.51,1.49 -0.98,2.05 -0.11,0.13 -0.94,1.46 -1.13,1.4 -1.54,-0.53 -0.21,-2.9 -2.15,-3.22 0.63,0.73 1.06,1.94 0.25,2.75 -0.47,-0.48 -0.76,-1.11 -1.5,-1.25 0.11,0.62 0.11,1.29 0.48,1.84 0.34,0.5 1.01,1.09 0.91,1.76 -0.12,0.75 -0.96,0.14 -1.29,-0.2 -1.29,-1.32 -0.11,-3.2 0.03,-4.65 0.02,-0.26 -0.15,-0.54 -0.12,-0.75 0.06,-0.54 0.66,-1.09 1.04,-1.41 0.57,-0.49 0.98,-0.55 1.71,-0.34 -0.24,-0.73 -0.64,-1.54 -0.3,-2.3 0.4,-0.92 0.53,-1.84 0.73,-2.82 0.2,-1 -0.04,-1.77 -0.38,-2.7 -0.33,-0.89 -0.59,-2.11 -1.79,-1.92 0.04,-0.94 0.64,-1.73 0.84,-2.63 0.27,-1.2 0.08,-2.51 0.22,-3.74 0.13,-1.08 0.24,-2.12 -0.24,-3.13 -0.47,-1.01 -1.12,-2.08 -0.91,-3.24 0.05,-0.3 0.22,-1.25 0.53,-1.35 3.11,-1.02 6.53,-0.35 9.68,0.28 0.63,0.13 5.04,0.64 4.68,1.84 -0.22,0.75 -0.63,1.03 -1.34,1.36 -0.46,0.21 -0.46,0.08 -0.61,-0.33 -0.12,-0.35 -0.25,-0.69 -0.36,-1.05 -0.66,1.28 0.6,3.45 0.84,4.75 0.17,0.94 0.2,1.69 -0.84,2.08 -0.75,0.28 -1.49,0.71 -2.25,0.92 0.71,0.26 1.54,-0.1 2.2,-0.33 1.03,-0.37 2.06,-0.43 3.16,-0.43 1.52,0 3.74,-0.01 4.75,1.41 0.68,0.96 0.89,2.61 -0.61,2.85 0.2,0.8 0.59,1.51 0,2.25 0.76,-0.21 1.97,-0.27 2,0.75 h -2.75 c 0.03,0.17 0.12,1.17 0.25,1.25 0.26,0.16 0.76,-0.08 1.04,-0.11 0.5,-0.05 1.04,0.25 1.54,0.29 0.59,0.04 1.01,-0.12 0.93,0.57 -0.13,1.06 -0.83,1.57 -1.62,2.14 -0.89,0.64 -0.03,1.66 0.62,2.11 -0.22,-0.43 -0.48,-0.85 -0.75,-1.25 0.8,-0.4 1.69,0.01 2.52,-0.19 0.68,-0.16 1.21,-0.62 1.93,-0.74 0.37,-0.06 1.08,0.42 1.06,0.81 -0.21,3.21 -1.32,6.5 -2.21,9.57 -0.9,3.1 -0.3,6.38 -1.52,9.43 -0.6,1.5 -1.35,2.91 -2.36,4.17 -0.82,0.95 -1.59,2.42 -2.94,2.67 m -23.5,-0.75 c -1.79,-1.04 -2.61,-4.16 -3.02,-6.02 -0.58,-2.64 -0.73,-5.19 -0.73,-7.88 0,-5.36 0.22,-10.75 1,-16.05 0.78,-5.33 2.18,-10.22 3.91,-15.3 0.82,-2.42 1.61,-4.82 2.57,-7.19 1.02,-2.54 2.26,-4.98 2.92,-7.65 0.28,-1.13 0.04,-2.24 -0.15,-3.37 -0.12,-0.74 -1.41,-2.01 -2.05,-2.32 -0.42,-0.2 -1.96,-0.52 -1.94,-1 0.02,-0.29 0.14,-0.48 0.29,-0.71 0.55,-0.81 2.33,-0.77 3.13,-0.57 1.27,0.31 1.84,1.03 2.64,1.99 0.57,0.68 0.69,2.25 0.67,3.09 -0.07,2.52 -1.36,5.26 -2.45,7.48 -1.24,2.53 -2.38,5.12 -3.43,7.74 -1.07,2.67 -1.89,5.4 -2.75,8.14 -0.77,2.47 -1.95,5.23 -2.07,7.84 -0.25,5.64 -1.51,11.19 -1.29,16.88 0.1,2.61 0.37,5.2 1.01,7.73 0.34,1.36 0.61,2.73 0.99,4.08 0.19,0.65 1.23,2.45 0.75,3.09 m -25,-0.75 c 0.48,-0.71 2.62,-1.96 3.5,-1.75 -0.26,0.54 -0.76,1.2 -1.2,1.6 -0.44,0.4 -0.63,0.74 -1.22,0.7 -0.37,-0.03 -0.78,-0.36 -1.08,-0.55 m 17.75,0 v -0.75 c 0.62,0.31 0.62,0.43 0,0.75 m -3,-1 c 0.65,-0.1 1.58,0.32 1.75,1 -0.7,0.01 -1.39,-0.4 -1.75,-1 m 1,-52 c 0,4.47 -0.31,8.91 -0.25,13.38 0.07,4.38 0.23,8.86 0.91,13.18 0.33,2.15 0.36,4.32 0.79,6.46 0.46,2.24 0.93,4.49 1.47,6.72 0.54,2.27 1.24,4.53 2.09,6.71 0.73,1.87 1.91,3.79 2.24,5.79 -1.04,-0.02 -1.97,-0.81 -2.79,-1.37 -1.21,-0.83 -1.54,-2.34 -1.99,-3.64 -0.62,-1.8 -1.24,-3.59 -1.78,-5.42 -1.08,-3.65 -2.08,-7.32 -3.11,-10.98 -0.97,-3.45 -2.03,-6.87 -3.02,-10.31 -0.48,-1.66 -1.05,-3.29 -1.48,-4.96 -0.45,-1.74 -1.21,-3.6 -1.24,-5.41 -0.04,-2.11 2.42,-2.85 3.71,-4.04 1.04,-0.96 1.65,-2.47 2.33,-3.7 0.49,-0.88 1.02,-2.2 2.12,-2.41 m 4,52.25 c -1.62,-0.33 -2.84,-1.71 -4.23,-2.51 -1.05,-0.61 -2.82,-1.37 -3.02,-2.74 1.71,0.26 3.03,1.84 4.46,2.69 0.67,0.4 3.02,1.52 2.79,2.56 m -7.25,0 c 0.15,-0.94 0.9,-2.49 2,-2.5 -0.02,0.88 -1.06,2.48 -2,2.5 m -1.25,-1 c 0.23,-0.67 0.83,-1.09 1.5,-1.25 -0.14,0.49 -0.89,2.26 -1.5,1.25 m -3.75,-1 c 0.35,-0.08 0.7,0.14 0.75,0.5 -0.3,-0.11 -0.54,-0.24 -0.75,-0.5 m 2.5,0.25 c 0.19,-0.28 0.45,-0.38 0.75,-0.5 -0.05,0.36 -0.41,0.52 -0.75,0.5 m 2.75,-0.75 c -0.26,-0.48 0.07,-0.82 0.5,-1 -0.01,0.39 -0.17,0.77 -0.5,1 m 5,-0.5 c -1,-0.62 -1.55,-1.16 -2.05,-2.23 -1.14,-2.45 -1.77,-5.27 -2.53,-7.86 -0.8,-2.7 -1.61,-5.39 -2.41,-8.09 -0.8,-2.69 -1.41,-5.43 -2.19,-8.12 -0.82,-2.83 -1.84,-5.61 -2.73,-8.42 -0.38,-1.21 -0.18,-1.99 0.41,-3.02 0.96,0.55 0.97,2.12 1.25,3.06 0.46,1.57 0.94,3.13 1.4,4.7 1.04,3.55 2.09,7.11 3.25,10.63 1.14,3.48 2.1,7.01 3.23,10.5 0.53,1.63 1.13,3.23 1.73,4.83 0.35,0.99 1.43,3.02 0.64,4.02 m -7.5,-1 c 0.4,0.02 0.72,0.36 0.75,0.75 -0.52,0.05 -0.7,-0.3 -0.75,-0.75 m 29,-2 c 0.12,-0.52 0.22,-1 0.75,-1.25 -0.15,0.51 -0.28,0.94 -0.75,1.25 m 14.5,-3.25 c 0.19,-1.04 -1.73,-0.78 -2.3,-0.73 -1.83,0.15 -3.39,0.54 -5.21,0.04 -0.8,-0.22 -1.49,-1.18 -1.99,-1.81 -0.68,0.8 0.66,1.72 1.15,2.16 0.68,0.6 1.96,0.75 2.83,0.85 1.77,0.18 3.93,0.57 5.52,-0.51 m -18.75,0.75 c -0.44,-0.85 -1.28,-1.42 -1.75,-2.25 0.63,0 1.14,0.02 1.46,0.6 0.27,0.48 0.78,1.13 0.29,1.65 m 2.25,-1.25 c -0.63,-0.67 -1.13,-2.1 -1.25,-3 0.8,0.43 1.95,2.11 1.25,3 m -17,-0.25 c -0.89,-1.65 -1.22,-3.52 -1.63,-5.33 -0.5,-2.2 -0.91,-4.38 -1.25,-6.61 -0.64,-4.2 -0.92,-8.52 -0.87,-12.77 0.05,-4.44 1.03,-8.67 1.98,-12.99 0.93,-4.27 2.11,-8.99 4.22,-12.84 1.14,-2.07 2.45,-3.96 5.07,-3.66 0.97,0.11 2.21,0.57 2.75,1.48 0.62,1.05 0.76,1.95 0.69,3.17 -0.12,2 -0.96,3.85 -1.8,5.63 -0.95,2 -1.62,4.07 -2.37,6.15 -1.46,4.05 -3.24,8.13 -4.11,12.35 -0.44,2.16 -1.09,4.35 -1.35,6.54 -0.25,2.09 -0.56,4.39 -0.58,6.49 -0.02,2.23 -0.52,4.43 -0.52,6.68 v 3.11 c 0,0.78 0.29,1.95 -0.23,2.6 m 6.5,-0.25 c 0.05,-0.34 0.16,-0.67 0.25,-1 -1.24,0.02 -2.1,-0.47 -3.05,-1.19 -0.42,-0.32 -0.41,-0.77 -0.43,-1.26 -0.03,-0.69 0.21,-0.89 0.9,-0.96 1.06,-0.1 2.28,0.98 3.03,1.6 0.8,0.65 1.92,1.48 1.04,2.55 h 1.75 c -0.68,0.62 -2.67,0.26 -3.49,0.26 m 8.75,-0.75 c -0.72,-1.37 -1.9,-2.33 -1.23,-4.02 0.52,-1.32 1.66,-2.83 2.98,-3.48 -0.14,1.25 -1.63,2.67 -2.28,3.73 -0.67,1.08 1.36,2.79 0.53,3.77 m 16.25,-0.5 c 0,-1.22 0.49,-2.05 0.12,-3.3 -0.21,-0.7 -0.16,-2.82 -1.12,-2.96 v 1.5 c -0.67,0 -1.49,-0.34 -2.13,-0.17 -0.73,0.2 -1.41,0.43 -2.12,0.67 0.02,-0.63 0.33,-1.16 0.5,-1.75 -0.88,0.47 -1.38,1.36 -2.18,1.92 -0.33,0.23 -0.93,0.51 -0.57,1.08 0.38,0.6 2.21,1.07 2.82,1.4 1.44,0.78 2.98,1.67 4.68,1.61 m -23.25,-3 c 0.71,0.59 0.92,1.32 1.83,1.66 0.49,0.18 0.93,0.49 1.42,0.17 0.35,-0.22 0.62,-0.7 0.75,-1.08 0.81,0.97 -1.12,2.07 -1.94,1.94 -1.16,-0.2 -2.07,-1.52 -2.06,-2.69 m 18.25,0.25 c 0.89,-0.56 3.49,0.79 3.75,1.75 -1.29,0.01 -2.71,-1.09 -3.75,-1.75 m 2,-1.25 c 0.61,-0.19 1.62,-0.43 1.39,0.5 -0.12,0.48 -0.23,0.62 -0.7,0.35 -0.32,-0.19 -0.64,-0.45 -0.69,-0.85 m -21.5,0.25 c -0.48,-0.31 -0.72,-0.77 -1,-1.25 0.48,0.13 1.51,0.64 1,1.25 m -3.75,-1.75 c 1.07,0.16 2.14,0.66 2.5,1.75 -1.23,0.05 -2.56,-0.3 -2.5,-1.75 m 0,-0.75 c -0.19,-1.02 1.56,-0.81 1.75,0 -0.57,0.1 -1.2,0.28 -1.75,0 m 1.75,-1.25 c -0.41,-0.2 -0.85,-0.29 -1.25,-0.5 0.38,-0.32 1.44,-0.09 1.25,0.5 m 11.25,-0.5 c -0.42,-0.35 -0.67,-0.97 -0.75,-1.5 0.49,0.24 1.08,0.97 0.75,1.5 m -7.5,-0.5 c -0.34,-0.65 -0.12,-1.39 -0.27,-2.08 -0.17,-0.77 -0.36,-1.54 -0.54,-2.31 -0.38,-1.6 -0.87,-3.24 -0.08,-4.81 0.82,-1.64 2.08,-3.03 2.48,-4.84 0.17,-0.75 0.21,-1.72 -0.09,-2.45 -0.28,-0.68 -1.16,-1.24 -1.25,-2 0.81,0.29 1.31,0.82 1.81,1.49 0.56,0.74 0.45,1.61 0.4,2.49 -0.08,1.31 -0.81,2.42 -1.53,3.47 -0.61,0.89 -1.83,2.36 -1.56,3.54 0.11,0.48 2.41,7.94 0.63,7.5 m -1.5,-0.25 c 0,-1.45 -0.53,-2.83 -0.91,-4.21 -0.42,-1.51 -0.52,-2.74 -0.34,-4.29 -0.71,1.09 -0.58,2.31 -0.34,3.53 0.3,1.56 0.59,3.13 0.59,4.72 -0.92,-0.12 -1.18,-1.81 -1.33,-2.5 -0.31,-1.4 -0.64,-2.8 -0.87,-4.22 -0.12,-0.77 0.59,-1.71 0.96,-2.31 0.92,-1.46 2.44,-2.32 3.39,-3.76 1.02,-1.56 0.24,-2.75 -0.41,-4.22 0.77,0.14 1.54,0.75 1.84,1.5 0.34,0.86 -0.04,1.65 -0.3,2.47 -0.39,1.29 -1.55,2.29 -2.16,3.49 -0.72,1.42 -0.8,2.48 -0.37,4.02 0.35,1.26 1.77,4.84 0.25,5.78 m -7.75,-2.5 c -0.71,0 -1.02,0.61 -1,1.25 0.64,-0.01 1.11,-0.62 1,-1.25 m 4.5,-0.25 c 0.1,-0.55 -0.24,-1.18 -0.25,-1.75 0.38,0.36 0.65,1.33 0.25,1.75 m 8,-0.75 c -1.02,0.04 -1.44,-0.73 -1.58,-1.66 -0.11,-0.68 -0.44,-2.51 0.38,-2.86 0.49,-0.21 0.94,-0.49 1.34,0.07 0.24,0.34 0.39,1.05 0.33,1.46 -0.16,1 -0.29,2 -0.47,2.99 m -0.5,-1.25 c -0.15,-0.92 -0.5,-1.81 -0.5,-2.75 -0.61,0.66 -0.11,2.24 0.5,2.75 m -2,-0.25 c -1.75,-1.41 -0.78,-4.37 1,-5.25 0.07,1.02 -0.54,1.88 -0.85,2.8 -0.25,0.77 0.4,1.76 -0.15,2.45 m -10,-1 c 0.19,-0.39 0.66,-1.14 0.62,-1.55 -0.01,-0.12 -0.03,-0.84 -0.13,-0.85 -0.37,-0.06 -0.74,-0.12 -1.12,-0.18 -0.9,-0.15 -0.58,2.81 0.63,2.58 m 72,-0.5 c 0,-3.21 -0.59,-7.54 1.36,-10.36 0.54,-0.78 1.35,-1.31 1.88,-2.08 0.46,-0.66 0.71,-1.44 1.19,-2.1 0.9,-1.24 2.35,-2.35 2.56,-3.96 -2.41,0.67 -4.37,2.5 -7,2.5 0.43,-0.53 1.22,-0.79 1.75,-1.25 -0.16,0.03 -0.34,-0.02 -0.5,0 0.79,-1.82 -2.09,-1.95 -3.18,-1.82 -1.64,0.2 -2.99,-0.13 -4.48,-0.78 -0.65,-0.28 -1.05,-0.91 -1.63,-1.29 -0.69,-0.44 -1.4,-0.85 -2.11,-1.25 -0.94,-0.52 -2.42,-2.02 -2.61,-3.12 0.98,0 1.92,0.26 2.88,0.41 1.15,0.18 2.35,-0.07 3.49,0.13 1.06,0.18 1.83,0.87 2.72,1.41 0.85,0.52 1.84,0.77 2.61,1.42 0.79,0.66 0.65,1.84 1.55,2.53 0.84,0.64 2.21,0.67 3.22,0.79 1.84,0.22 3.78,-1.91 5.29,-2.7 -0.11,0.5 -0.42,0.88 -0.75,1.25 1.02,-0.47 2.11,-2.25 3.25,-2.25 -0.46,0.92 -1.42,1.42 -2.12,2.13 -0.59,0.61 -1.69,1.83 -1.87,2.67 -0.22,1.08 0.08,2.1 0.28,3.15 0.22,1.15 0.05,2.22 -0.29,3.32 -0.31,0.99 -0.98,1.81 -1.42,2.73 -0.55,1.17 -0.99,2.33 -1.71,3.41 -1.17,1.79 -2.51,3.93 -4.36,5.11 m -15.75,-0.5 c 0.03,-1.27 0.07,-2.65 0.43,-3.88 0.36,-1.22 1.25,-2.19 2.02,-3.15 0.88,-1.09 1.57,-2.32 2.47,-3.4 0.63,-0.76 2.26,-2.07 3.34,-1.82 -0.17,1.32 -0.78,2.61 -1.17,3.88 -0.37,1.19 -0.99,2.19 -1.87,3.08 -1.61,1.63 -2.6,4.89 -5.22,5.29 m 6.25,-9.25 c -1.2,0.19 -1.82,1.7 -2.33,2.64 -0.67,1.24 -1.7,2.43 -1.92,3.86 1.08,-0.16 1.66,-1.55 2.09,-2.39 0.31,-0.61 0.64,-1.22 0.98,-1.81 0.41,-0.71 1.18,-1.44 1.18,-2.3 m 11.5,6 a 18,18 0 0 0 3.12,-5.84 c 0.32,-1.01 0.54,-2.05 0.87,-3.07 0.26,-0.79 0.68,-1.75 0.51,-2.6 -0.76,0.17 -0.98,1.26 -1.13,1.89 -0.27,1.14 -0.57,2.29 -0.99,3.39 -0.48,1.23 -0.96,2.51 -1.62,3.66 -0.37,0.62 -1.24,1.83 -0.76,2.57 m -66.75,-2 c 0.04,-1.11 0.97,-2.42 0.75,-3.5 1.8,0.36 0.6,3.32 -0.75,3.5 m -1,-1 c 0.17,-1.09 0.08,-2.16 0.25,-3.25 1.66,0.32 1.05,2.85 -0.25,3.25 m -6,-1.75 c -0.39,0.19 -0.54,0.52 -0.65,0.91 -0.05,0.18 0.01,0.89 0.25,0.8 0.83,-0.28 0.89,-1.06 0.4,-1.71 m 25.25,-1.75 c -0.31,-0.44 -0.59,-1.27 -0.44,-1.8 0.27,-0.96 0.47,-1.25 1.41,-1.59 0.63,-0.23 1.52,0.03 2.08,-0.29 0.61,-0.34 1.13,-0.68 1.46,-1.32 0.76,0.87 -0.59,1.41 -1.24,1.65 -1.04,0.38 -2.05,0.82 -2.62,1.84 -0.27,0.48 -0.29,1.1 -0.65,1.51 m 31.75,-3.5 c -0.26,-1.49 -3.69,-0.04 -4.43,0.24 -1.09,0.4 -2.19,0.74 -3.3,1.1 -0.81,0.26 -2.49,0.44 -2.76,1.42 1.83,-0.06 3.5,-0.95 5.27,-1.34 1.76,-0.4 3.42,-1.2 5.22,-1.42 m -56,2.75 c 0.47,-0.83 2.62,-2.3 2.36,-3.29 -0.2,-0.74 -0.6,-1.43 -0.64,-2.21 -0.02,-0.26 0.18,-0.78 0.03,-1 -0.12,-0.17 -0.85,-0.14 -1.04,-0.05 -0.74,0.35 -0.14,1.1 -0.96,1.3 -0.91,0.24 -1.07,0.92 -1.35,1.72 -0.16,0.48 0.35,1.55 0.49,2.03 0.19,0.6 0.33,1.65 1.11,1.5 m 9.5,-1 c -0.35,-1.49 -0.38,-3.02 -0.75,-4.5 -0.51,1.02 -0.25,2.4 -0.25,3.5 -0.9,-0.12 -1,-1.76 -0.94,-2.45 0.1,-1.11 0.25,-2.13 1.05,-2.98 0.81,-0.86 1.74,-1.23 2.11,-2.45 0.28,-0.94 -0.04,-2 0.28,-2.87 0.78,0.49 0.49,2.1 0.37,2.84 -0.14,0.87 -1.06,1.75 -1.4,2.6 -0.47,1.15 -0.72,1.94 -0.39,3.15 0.11,0.44 0.46,0.79 0.5,1.25 0.06,0.63 0.12,1.27 0.17,1.9 -0.25,0.01 -0.5,0.01 -0.75,0.01 m 16.25,-3 c 0.42,-0.73 1.34,-1.89 2.14,-2.16 0.89,-0.3 2.42,-1.22 3.36,-1.09 -0.1,0.54 -0.66,0.69 -1.12,0.81 -0.67,0.17 -1.09,0.61 -1.53,1.11 -0.75,0.84 -1.59,1.96 -2.85,1.33 m 13.5,-4 c 0.85,-0.17 1.72,0.48 2.49,0.74 1,0.34 2.21,0.49 3.26,0.51 -0.8,0.71 -2.55,0 -3.5,0 0.83,0.99 2.74,0.81 3.9,1.08 1.68,0.39 3.41,0.38 5.1,0.66 -0.52,0.72 -1.68,0.68 -2.46,0.73 -1.19,0.08 -2.31,0.26 -3.5,0.03 -1.08,-0.21 -1.69,-1.32 -2.73,-1.64 -1.02,-0.3 -2.37,-0.93 -2.56,-2.11 m 28.75,3.75 c 0.31,-0.42 1.02,-0.54 1.5,-0.5 -0.34,0.42 -0.98,0.51 -1.5,0.5 m 0.75,-1 c 0.34,-0.48 1.7,-0.86 2.25,-0.75 -0.53,0.51 -1.54,0.73 -2.25,0.75 m -57.25,-3 c 0.64,-0.88 1.96,-0.83 2.92,-0.71 1.44,0.18 2.95,0.25 4.37,0.57 2.56,0.6 5.46,0.61 7.71,2.13 -0.54,0.79 -1.91,0.13 -2.55,-0.13 -1.17,-0.48 -2.4,-0.79 -3.65,-0.99 -2.91,-0.47 -5.85,-0.87 -8.8,-0.87 m 16.25,1.35 c -1.61,-0.27 -0.99,-1.9 -0.01,-2.56 1.27,-0.85 2.24,-1.37 3.81,-1.25 0.71,0.05 0.99,0.36 0.8,1.01 -0.23,0.81 -0.42,0.98 -1.11,1.47 -1,0.72 -2.22,1.31 -3.49,1.33 m -2.5,-1.22 c -0.92,-0.04 -2.98,-0.05 -3.35,-1.07 -0.39,-1.06 1.94,-2.28 2.67,-2.57 0.59,-0.23 1.28,-0.6 1.94,-0.45 0.58,0.14 1.2,0.52 1.09,1.15 -0.25,1.44 -1.1,2.32 -2.35,2.94 m -23.05,-0.38 0.33,-1.13 c -0.51,-0.13 -1.01,-0.44 -1.33,0.09 -0.18,0.3 0.52,1.34 1,1.04 m 67.55,-0.25 c -0.21,-1.16 -2.17,-1.41 -3.07,-1.65 -1.74,-0.46 -3.14,-1.81 -4.93,-2.1 0.64,1.12 2.11,1.64 3.25,2.07 1.51,0.58 3.09,1.65 4.75,1.68 m -52.5,-1 c 0.19,-1.21 1.14,-2.08 2.1,-2.71 0.39,-0.25 2.92,-1.17 2.72,0.07 -0.19,1.16 -0.29,2.51 -1.57,3.02 -0.86,0.34 -2.45,0.04 -3.25,-0.38 m -8.25,0.5 c 0.32,-0.97 0.55,-2.09 1,-3 0.86,0.93 -0.15,2.51 -1,3 m 4,-0.5 c -0.43,-0.8 0.25,-1.86 0.89,-2.34 0.47,-0.36 0.8,-0.64 1.36,-0.81 0.28,-0.09 1.21,-0.32 1.32,0.14 0.1,0.4 0.37,0.96 0.17,1.36 -0.17,0.33 -0.47,1.3 -0.81,1.44 -0.94,0.36 -1.96,-0.07 -2.93,0.21 m 71,-2 c 0.6,-0.04 1.25,0.02 1.8,-0.27 0.54,-0.28 1.08,-0.63 1.7,-0.73 -0.5,-0.46 -1.24,-0.99 -1.25,-1.75 1.4,0 4.4,1.88 2.53,3.37 -0.8,0.64 -1.59,0.95 -2.66,0.78 -0.78,-0.14 -1.99,-0.46 -2.12,-1.4 m -55.75,0 c -0.18,-0.99 1.18,-0.6 1.75,-0.5 -0.17,0.74 -1.19,0.81 -1.75,0.5 m 42.75,-7.5 c 0.29,-0.05 0.59,-0.02 0.75,0.25 v -2.25 c -0.23,0.47 -0.35,1 -0.5,1.5 -1.82,-0.54 0.09,-3.05 1.25,-3.25 -1.21,-0.46 -2.29,2.11 -3.38,1.45 -1.05,-0.64 3.7,-6.3 4.02,-6.78 0.17,-0.25 0.53,-1.04 0.93,-0.95 0.8,0.17 0.01,1.66 -0.07,2.04 0.39,-0.31 0.83,-0.85 1.29,-1.05 1.61,-0.7 3.83,0.09 5.38,0.57 1.94,0.59 3.79,1.42 5.55,2.43 0.18,0.1 0.82,0.91 0.78,1.1 -0.13,0.56 -0.4,1.12 -0.47,1.69 -0.17,1.53 -1.42,1.01 -2.53,1.26 -1.02,0.23 -1.67,1.6 -1.93,2.5 -0.11,0.37 -0.41,1.05 -0.14,1.35 0.5,0.58 1.21,0.96 1.57,1.65 -0.52,0.34 -1.46,0.92 -2.1,0.69 -0.47,-0.16 -0.95,-0.33 -1.42,-0.49 -0.33,-0.11 -0.35,-0.77 -0.42,-1.05 -0.18,-0.73 0.15,-1.48 -0.03,-2.21 -0.18,-0.76 -0.62,-1.43 -0.78,-2.2 -0.07,0.87 0.31,1.91 0.46,2.76 0.2,1.13 -0.37,1.66 -1.21,2.24 1.29,0.46 2.27,1.37 3.7,1.49 1.27,0.1 2.91,-0.17 3.79,1 -0.98,0.46 -2.21,0.82 -3.26,1.08 -0.94,0.24 -2.07,0.65 -3.05,0.51 -1.02,-0.15 -1.91,-0.98 -2.8,-1.45 -1.05,-0.56 -2.13,-1.08 -2.99,-1.92 -1.01,-0.99 -2.39,-2.41 -2.39,-3.96 m -65.5,2 c 0.08,-0.4 0.25,-0.77 0.33,-1.18 0.1,-0.47 -0.47,-0.77 -0.77,-1.06 -1.16,-1.1 -0.73,0.93 -1.06,1.23 -0.16,0.15 -0.91,-0.02 -1.18,0.04 -0.42,0.09 -0.86,0.21 -1.1,0.61 -0.59,0.97 -0.16,1.86 0.07,2.91 0.15,0.72 0.56,1.72 1.1,2.21 0.63,0.58 1.79,-0.52 2.33,-0.89 0.51,-0.35 1.46,-1.23 1.59,-1.89 0.17,-0.88 -0.35,-1.95 -1.31,-1.98 m 17.25,5 c -0.03,-0.17 -0.29,-0.98 -0.19,-1.03 0.38,-0.15 0.72,-0.19 1.13,-0.1 1.52,0.35 -0.3,1.04 -0.94,1.13 m -10.75,0 c -0.23,-0.5 -0.79,-1.14 -0.1,-1.41 0.54,-0.21 1.29,-0.09 1.85,-0.09 -0.22,0.75 -0.94,1.49 -1.75,1.5 m 0,-3.5 c 0.06,-2.22 6.26,-1.26 7.58,-1.22 2.45,0.08 4.91,0.37 7.35,0.66 2.33,0.27 4.79,0.62 7.01,1.41 0.64,0.22 2.34,1.71 1.02,2.08 -1.48,0.42 -3.31,-0.9 -4.71,-1.3 -1.96,-0.56 -3.92,-0.84 -5.93,-1.16 -2.08,-0.33 -4.15,-0.5 -6.25,-0.67 -2.03,-0.18 -4.05,0.16 -6.07,0.2 m -0.5,1.5 c 0.27,-0.93 2.42,-0.79 3.15,-0.9 1.88,-0.29 3.87,0.12 5.76,0.21 3.8,0.17 7.44,0.96 11.11,1.94 -0.68,0.66 -2.9,-0.31 -3.67,-0.46 -1.87,-0.35 -3.77,-0.5 -5.64,-0.82 -1.69,-0.29 -3.39,-0.2 -5.09,-0.39 -1.91,-0.23 -3.73,0.35 -5.62,0.42 m 6,1.5 c -0.18,-0.31 -0.2,-0.65 -0.25,-1 0.51,-0.06 0.99,-0.13 1.5,0 -0.22,0.43 -0.76,0.93 -1.25,1 m 68,-3.5 c -0.8,0.24 -1.11,0.03 -1.43,-0.7 -0.22,-0.49 -0.41,-1.04 -0.57,-1.55 1.25,-0.22 2.73,0.89 4.01,0.95 0.68,0.03 2.61,-0.27 2.89,0.63 0.15,0.51 0.66,1.37 -0.11,1.6 -0.65,0.2 -1.15,0.35 -1.83,0.32 -0.83,-0.03 -2.99,0 -2.96,-1.25 m -51.75,-20.25 c 1.52,-0.82 3.6,1.74 4.44,2.72 1.01,1.18 1.74,2.56 2.25,4.02 0.39,1.1 1.23,2.82 0.96,4.01 -0.32,1.38 -1.31,2.85 -2.1,4 -0.75,1.1 -2.04,2.41 -2.29,3.75 0.62,-0.36 1.12,-0.94 1.75,-1.25 -0.1,0.52 -0.2,1.02 -0.36,1.52 -0.25,0.76 -1.65,1.5 -2.39,1.68 -0.77,0.2 -0.98,0.06 -1.08,-0.64 -0.06,-0.43 0.35,-0.95 0.55,-1.3 0.39,-0.71 0.72,-1.49 1.01,-2.25 0.66,-1.76 0.94,-3.58 0.65,-5.44 -0.31,-1.93 -0.46,-3.89 -1.11,-5.74 -0.33,-0.94 -0.75,-1.85 -1.18,-2.74 -0.36,-0.73 -0.96,-1.54 -1.1,-2.34 m -0.75,6 c 0.86,0.65 1.09,2.18 1.37,3.15 0.5,1.73 0.38,3.53 0.38,5.3 0,1.4 0.1,3.03 -0.39,4.37 -0.33,0.91 -1.38,1.87 -1.8,0.44 -0.26,-0.91 0.13,-2.01 0.43,-2.86 0.4,-1.13 0.64,-2.24 0.69,-3.44 0.05,-1.23 -0.03,-2.46 -0.08,-3.69 -0.05,-1.11 -0.62,-2.21 -0.6,-3.27 m -2,13.5 c -0.05,-0.25 0.12,-0.88 0.5,-0.5 0.38,0.38 -0.25,0.55 -0.5,0.5 m -2.75,-0.25 c -0.02,-1.02 1.25,-1.04 1.25,0 h -1.25 m -30.5,-0.25 c 0.66,-2.55 1.63,-5.12 1.75,-7.75 -0.72,0.62 -1.57,1.81 -1.75,2.75 0.9,-0.39 0.21,1.83 0.12,2.14 -0.15,0.53 -0.87,2.58 -0.12,2.86 m 41.25,-0.25 c 0.16,-0.85 0.81,-1.55 1.33,-2.21 0.68,-0.88 1.24,-1.86 1.78,-2.84 1.13,-2.06 2.6,-3.87 3.81,-5.88 2.21,-3.68 3.24,-8.49 2.42,-12.71 -0.43,-2.19 -1.22,-4.45 -2.97,-5.92 -0.41,-0.34 -0.8,-0.69 -1.2,-1.04 -0.47,-0.41 -0.11,-1.13 0,-1.63 0.07,-0.31 0.41,-0.89 0.64,-1.07 0.71,-0.56 0.8,-0.67 1.64,-0.35 1.03,0.39 1.72,1.63 2.28,2.52 1.24,1.97 1.59,4.7 2.11,6.94 0.52,2.24 0.81,5.1 0.13,7.33 -1.46,4.81 -3.7,9.41 -6.52,13.56 -0.95,1.38 -3.72,3.3 -5.45,3.3 m -12.5,0 c 0.53,-1.06 0.79,0.16 0,0 m -7.25,-8.5 c 0.91,-1.69 -0.75,-4.55 -1.56,-6.02 -0.44,-0.8 -3.75,-4.31 -2.94,-5.36 0.59,-0.75 2.37,-0.37 2.92,0.19 2.37,2.41 1.17,6.63 3.49,9.04 0.7,0.73 1.46,1.67 2.35,2.16 -0.6,-1.78 -0.5,-3.65 -0.5,-5.5 0,-0.96 -0.02,-1.93 -0.21,-2.88 -0.19,-0.98 -0.65,-1.88 -0.79,-2.87 1.17,0.24 1.92,1.42 2.71,2.21 0.77,0.79 1.77,1.72 2.05,2.83 0.64,2.58 0.34,5.34 0.74,7.95 0.91,-1.23 0.3,-2.81 0.28,-4.19 -0.02,-1.62 -0.13,-3.24 -0.53,-4.81 1.41,0.29 1.49,2.66 1.71,3.8 0.29,1.47 0.18,2.97 0.54,4.45 0.14,-0.28 0.25,-0.55 0.5,-0.75 0.51,0.8 -0.33,2.1 -0.67,2.81 -0.54,1.12 -1.1,2.14 -1.86,3.13 -0.59,0.77 -1.55,1.38 -2.46,1.7 -1.61,0.59 -3.28,0.41 -4.98,0.22 -1.76,-0.19 -3.31,-0.18 -4.79,-1.29 -0.79,-0.6 -1.64,-1.53 -1.46,-2.62 0.17,-1.01 0.36,-2.09 0.11,-3.1 -0.28,-1.17 -1.62,-3.18 -1.06,-4.4 0.6,-1.33 1.23,-3.08 2.49,-3.88 1.3,-0.8 4.12,6.06 3.92,7.18 m 64.75,5.75 c 1.02,-0.54 2.91,0.24 3.98,0.42 0.7,0.12 1.31,-0.2 1.88,-0.57 0.52,-0.35 0.84,1.21 0.84,1.56 -0.01,1.48 -2.67,1.03 -3.54,0.86 -0.66,-0.13 -1.49,-0.26 -2.05,-0.68 -0.49,-0.35 -0.79,-1.09 -1.11,-1.59 m -71,2.5 c 0.03,-0.61 0.12,-1.15 0.25,-1.75 0.76,0.11 1.49,0.68 1.5,1.5 -0.52,-0.09 -1.23,0.17 -1.75,0.25 m 17,-1 c 0.03,-1.02 1.03,-0.95 1.69,-0.54 0.38,0.23 -0.08,0.69 -0.39,0.7 -0.46,0.01 -0.84,-0.06 -1.3,-0.16 m 42.5,-0.5 v -1.25 c -0.28,0.34 -0.28,0.91 0,1.25 m -44.25,0 c 0.8,-2.88 3.1,-5.03 2.74,-8.24 -0.17,-1.54 -0.06,-3.31 -0.58,-4.77 -0.53,-1.46 -1.44,-2.88 -1.4,-4.48 0.74,0.09 1.21,0.18 1.75,0.75 1.22,1.27 2.01,3.54 2.25,5.25 -0.52,-0.08 -1.14,0.05 -1.45,0.54 -0.3,0.48 -0.05,1.13 -0.05,1.65 0,0.9 -0.08,1.79 -0.13,2.68 -0.08,1.36 -0.19,3.1 -0.72,4.37 -0.39,0.89 -1.41,2.06 -2.41,2.25 m 7.25,-1 c 0,-2.53 0.28,-5.15 -0.54,-7.59 -0.95,-2.84 -2.21,-5.59 -3.21,-8.41 1.3,0.25 2.14,2.11 2.7,3.16 1.14,2.17 1.81,4.97 2,7.4 0.1,1.38 0.45,4.54 -0.95,5.44 m 37.75,-0.25 c 0.02,-0.51 0.17,-1 0.25,-1.5 -0.58,0.19 -0.58,1.09 -0.25,1.5 m -41.5,0 c -0.18,-0.31 -0.2,-0.65 -0.25,-1 h 1 c -0.09,0.48 -0.26,0.85 -0.75,1 m 55.5,-0.5 c 0,-1.64 0.79,-3.39 1.07,-5 0.34,-1.92 0.55,-3.85 0.69,-5.8 0.07,-0.99 0.75,-2.7 1.99,-2.7 0,3.66 -0.73,7.26 -1.78,10.75 -0.29,0.97 -0.7,2.81 -1.97,2.75 m -38.25,-1 c 0.94,-0.48 1.83,-0.55 2.61,-1.38 2.2,-2.34 3.64,-5.32 5.43,-7.96 1.86,-2.74 3.23,-5.76 4.86,-8.64 1.56,-2.75 2.54,-5.97 3.67,-8.92 1.26,-3.32 2.4,-6.7 3.14,-10.19 1.42,-6.66 2.36,-13.4 2.54,-20.22 0.08,-2.99 0.57,-6.03 0.16,-9.03 -0.22,-1.65 -0.35,-3.32 -0.7,-4.95 -0.36,-1.62 -1.06,-3.07 -1.68,-4.6 -0.49,-1.24 0.03,-2.72 0.37,-3.94 0.09,-0.34 0.33,-2.21 0.88,-2.15 1.03,0.11 1.91,1.16 2.56,1.89 2.28,2.55 3.57,5.88 5.2,8.84 0.8,1.45 1.62,2.92 2.27,4.45 0.75,1.75 0.73,3.76 0.63,5.64 a 70.772,70.772 0 0 1 -4.58,21.6 c -1.31,3.41 -2.49,6.84 -4.09,10.13 -1.56,3.2 -3.31,6.31 -4.92,9.49 -1.6,3.18 -3.54,6.26 -5.43,9.28 -1.89,3 -3.94,6.11 -6.57,8.51 -1.63,1.5 -3.36,3.53 -5.75,2.91 -0.3,-0.08 -0.5,-0.45 -0.6,-0.76 m 40.75,-0.5 c 0,-0.42 -0.2,-1.08 0.42,-1.03 0.71,0.07 1.39,0.08 2.08,0.34 0.76,0.29 2.51,0.83 2.75,1.69 -1.83,0.55 -3.45,-1 -5.25,-1 m -15.5,1 c 0.12,-0.25 0.29,-0.46 0.25,-0.75 -0.27,0.17 -0.44,0.47 -0.25,0.75 m -67.5,-1.75 c -0.41,0.06 -0.65,0.22 -0.89,0.53 -0.13,0.17 -0.14,0.84 0.06,0.97 0.23,0.14 0.85,-0.09 0.93,-0.32 0.16,-0.42 0.03,-0.77 -0.1,-1.18 m 61.75,-3.75 c -0.35,0.05 -0.91,0 -1.22,0.18 -0.27,-0.86 0.28,-1.57 0.22,-2.43 -0.66,0.37 -1.28,1.37 -2.02,1.54 -0.1,0.02 -0.46,-0.36 -0.48,-0.25 -0.15,0.64 -0.23,1.28 -0.31,1.93 -0.1,0.73 -0.55,1.6 -0.21,2.33 0.14,0.31 0.25,0.61 0.47,0.87 0.15,0.18 0.72,0.46 0.95,0.32 0.51,-0.31 0.48,-1.09 -0.13,-1.45 -0.07,-0.04 -0.16,-0.27 -0.15,-0.33 0.25,-1.21 2.63,-1.4 2.88,-2.71 m -21.5,4 c 0.6,-1.85 1.64,-3.52 2.46,-5.27 0.97,-2.07 1.68,-4.25 2.31,-6.44 0.15,-0.51 0.18,-1.25 0.46,-1.71 0.33,-0.55 0.94,0.75 1.02,0.88 0.46,0.84 1.1,1.56 1.75,2.25 0.28,0.29 1.27,1.1 1.1,1.58 -0.56,1.53 -1.47,2.79 -2.38,4.13 -0.88,1.3 -1.68,2.68 -2.75,3.84 -0.61,0.67 -3.12,1.17 -3.97,0.74 m -6,0.25 c 0.07,-0.43 0.25,-0.89 0.5,-1.25 0.35,0.43 -0.11,1.03 -0.5,1.25 m -9,-0.25 c -0.57,-0.34 -0.14,-1.33 0.5,-1 0.67,0.35 0.12,1.11 -0.5,1 m 43.25,-2.5 c 0.2,-0.22 0.4,-0.21 0.69,-0.24 0.15,-0.02 0.06,-0.84 0.06,-1.01 -0.45,0.19 -0.48,0.32 -1,0.25 0,0.35 0.02,0.72 0.25,1 m -32.75,0 c -0.44,-0.81 0.26,-1.68 0.73,-2.3 0.71,-0.93 1.49,-1.89 1.88,-3.01 1.05,-2.99 2.02,-6.55 1.18,-9.72 -0.33,-1.21 -0.75,-2.1 -1.37,-3.2 -0.52,-0.93 -1.27,-1.63 -2.15,-2.19 -0.55,-0.35 -0.57,-0.45 -0.2,-1.02 0.37,-0.56 0.97,-0.28 1.46,-0.13 1.85,0.54 2.99,3.27 3.48,4.96 1.13,3.89 0.18,8.42 -1.45,12.04 -0.63,1.42 -1.83,4.24 -3.56,4.57 m -10.25,0 c 0,-0.09 0.04,-1.31 0.5,-0.75 0.42,0.36 -0.12,0.81 -0.5,0.75 m 44.75,-0.75 v -0.75 c -0.62,0.31 -0.62,0.43 0,0.75 m 1.75,-0.25 c 0,-0.3 0.08,-0.6 -0.25,-0.75 0.05,0.27 0.06,0.52 0.25,0.75 m -0.75,-0.25 c 0.05,-0.25 -0.12,-0.88 -0.5,-0.5 -0.38,0.38 0.25,0.55 0.5,0.5 m -38,-0.5 c 0,-0.76 -0.16,-1.56 -0.5,-2.25 -0.34,0.52 0.08,1.82 0.5,2.25 m -7.5,-0.25 v -0.75 c 0.21,0.23 0.2,0.51 0,0.75 m -2.75,-0.75 v -1.5 c 0.35,0.42 0.33,1.08 0,1.5 m -7.75,-0.25 c -1.62,-0.54 -1.52,-2.95 -1.85,-4.29 -0.08,-0.33 -1.39,-4.52 -0.36,-4.38 1.01,0.14 1.31,0.71 1.83,1.54 0.61,0.99 0.63,2.08 0.63,3.2 0,1.16 0.32,2.86 -0.25,3.93 m -10.49,-0.7 c -1.38,0.08 -0.01,-2.75 0.22,-3.24 0.39,-0.84 0.79,-1.73 1.41,-2.42 0.78,-0.87 1.61,-0.18 1.46,0.87 -0.11,0.81 -0.89,1.67 -1.29,2.36 -0.51,0.87 -1.05,1.74 -1.8,2.43 m 17.99,-1.3 c 0.12,-0.65 -0.22,-1.56 -0.25,-2.25 0.6,0.39 0.66,1.73 0.25,2.25 m 11.25,-1.5 c -0.16,-0.65 0.52,-0.67 1.01,-0.85 0.41,-0.15 1.05,-0.5 1.49,-0.4 0.04,0.99 -1.73,1.67 -2.5,1.25 m -11.75,-1 c -0.84,-0.92 -2.75,-2.66 -2.75,-4 0.93,-0.11 1.64,0.77 2.04,1.5 0.31,0.58 1.03,1.83 0.71,2.5 m 41.5,-48 c -1.92,-0.1 -4.45,1.16 -6.04,2.17 -1.84,1.17 -3.44,2.73 -4.79,4.44 -8.07,10.22 -8.97,26.42 -1.42,37.12 0.67,0.95 0.22,2.02 -0.39,2.88 -0.15,0.21 -0.6,1.09 -0.97,1.01 -0.66,-0.15 -1.05,-0.18 -1.52,-0.65 -2.93,-2.98 -3.85,-7.33 -4.74,-11.26 -1,-4.4 -0.93,-8.69 -0.38,-13.15 0.53,-4.27 2.86,-7.96 4.88,-11.66 2.03,-3.73 3.41,-7.93 6,-11.33 1.12,-1.45 2.71,-2.49 4.24,-3.45 0.95,-0.59 3.92,-2.11 5.01,-1.16 1.06,0.93 0.13,3.87 0.12,5.04 m 18.5,46.5 c -0.18,-0.31 -0.2,-0.65 -0.25,-1 0.33,0.09 0.66,0.2 1,0.25 -0.24,0.31 -0.42,0.53 -0.75,0.75 m -44.75,-0.75 c 0.28,0 1.59,-0.09 0.94,0.56 -0.36,0.36 -0.89,-0.12 -0.94,-0.56 m -2.25,0.25 c -0.05,-0.43 0.65,-0.91 1,-0.5 0.49,0.6 -0.82,0.5 -1,0.5 m -4,-0.75 c -0.15,-0.83 2.16,-1.47 2.74,-1.96 0.39,-0.32 1.89,-1.75 2.21,-0.67 0.38,1.29 -1.1,2.09 -2,2.63 -0.77,0.46 -2.16,0.42 -2.95,0 m 52,0 c 0.11,-0.38 0.03,-0.71 -0.15,-1.06 -0.18,-0.35 0.56,-0.64 0.9,-0.69 0.06,0.64 -0.18,1.4 -0.75,1.75 m -46.5,-1 c 0.21,-0.08 1.79,-0.22 2,0 0.08,0.09 0,0.61 0,0.75 -0.6,-0.07 -1.83,0.06 -2,-0.75 m 0.75,-0.75 c 0,-0.08 -0.07,-0.75 0.04,-0.75 0.29,0 0.98,-0.22 1.21,0 0.1,0.1 0.02,0.52 0,0.64 -0.04,0.22 -1.03,0.11 -1.25,0.11 m 15.5,-0.25 c -1.96,0.01 -3.23,-3.6 -3.76,-5.07 -2.27,-6.36 -3.01,-13.09 -1.24,-19.69 1.59,-5.91 4.47,-12.98 10.29,-15.93 1.31,-0.67 3.03,-1.72 4.56,-1.49 1.15,0.17 1.55,3.59 0.64,4.05 -0.94,0.49 -2.03,0.4 -2.94,0.86 -2.16,1.08 -3.86,2.36 -5.31,4.3 -2.93,3.92 -4.83,9.56 -4.92,14.44 -0.1,5.29 1.9,10.31 4.11,15.01 0.44,0.95 -1.06,2.73 -1.43,3.52 m -22.25,-1.25 c 0.55,-0.25 1.04,-0.29 1.63,-0.18 0.51,0.1 1.29,-0.01 1.12,0.68 -0.83,0 -2.15,0.19 -2.75,-0.5 m 6.25,-1 c 0.64,0 1.22,0.13 1.75,0.5 -0.46,0.68 -1.77,0.36 -1.75,-0.5 m 35,0.5 c 0.48,-0.76 1.13,-1.58 1.25,-2.5 -0.79,0.15 -1.91,1.8 -1.25,2.5 m -40.75,-1.25 c 0.84,0 3.29,-0.15 3.5,1 -0.79,-0.01 -3.35,0.18 -3.5,-1 m 0.75,-0.75 c 0,-0.73 -0.03,-0.8 0.78,-0.73 0.89,0.08 1.76,0.35 2.66,0.41 0.79,0.05 2.85,0.02 3.06,1.07 -1.09,0 -2.17,-0.06 -3.25,-0.23 -1.06,-0.16 -2.17,-0.71 -3.25,-0.52 m 33.75,-2.5 c 0.98,-0.24 1.08,0.82 1.87,0.87 0.39,0.02 0.61,-0.04 0.93,-0.24 0.55,-0.35 -0.89,-1.21 -0.69,-1.67 0.4,-0.91 1.48,-1.74 1.64,-2.7 -0.29,0 -0.64,0.11 -0.92,-0.01 -0.23,-0.1 -0.08,-1.5 -0.08,-1.74 -0.4,0.08 -0.68,0.4 -1.02,0.59 -0.55,0.31 -0.84,0.23 -1.48,0.16 0,1.24 0.25,2.49 0.25,3.75 -0.43,-0.13 -0.89,-0.04 -1.34,-0.02 -0.27,0.02 -0.16,0.87 -0.07,1 0.38,0.55 0.74,-0.08 0.52,0.82 -0.12,0.46 -0.09,0.97 -0.11,1.45 1.35,-0.33 1.29,-1.34 0.5,-2.26 m -32.75,1 c 0.53,-0.78 1.79,-0.43 2.54,-0.3 0.79,0.13 2.17,0.11 2.46,1.05 -1.48,-0.04 -3.67,-0.03 -5,-0.75 m -2.25,0.25 c 0.26,-1.61 1.41,-3.2 2.18,-4.6 1,-1.82 1.92,-3.68 2.81,-5.56 1.76,-3.71 3.47,-7.44 5.22,-11.16 1.76,-3.74 3.77,-7.32 5.38,-11.14 0.79,-1.86 1.59,-3.71 2.32,-5.6 0.49,-1.26 0.73,-3.46 1.92,-4.28 0.95,-0.65 1.93,-1.28 2.88,-1.94 0.76,-0.53 1.87,-1.83 2.79,-1.96 -0.26,1.91 -1.48,3.94 -2.28,5.67 -1.02,2.21 -2.07,4.41 -3.16,6.59 -2.17,4.35 -4.46,8.63 -6.67,12.96 -2.19,4.28 -4.55,8.48 -6.9,12.67 -0.97,1.73 -1.97,3.46 -3.01,5.15 -0.78,1.28 -1.86,2.96 -3.48,3.2 m 0,-6.75 c -0.24,-1.28 -1.69,-0.68 -2.41,-1.37 -0.68,-0.65 -0.92,-2.19 -0.61,-3.04 0.42,-1.17 0.94,-1.9 2.02,-2.54 0.95,-0.56 2.06,-0.02 2.99,-0.51 0.61,-0.31 -1.63,-1.02 -1.82,-1.15 -0.94,-0.66 -1.14,-2.29 -0.64,-3.28 0.25,-0.49 0.39,-1 0.85,-1.31 0.43,-0.29 1.01,-0.88 1.53,-0.95 1.15,-0.14 2.01,0.08 3.09,0.4 0.09,-0.32 0.5,-1.23 0.04,-1.27 -0.67,-0.06 -1.47,0 -2.07,-0.31 -1.33,-0.69 -1.46,-1.93 -1.22,-3.29 0.25,-1.42 1.48,-2.07 2.64,-2.58 1.11,-0.49 2.49,0.47 3.61,0.45 -0.01,-1.39 -1.86,-0.96 -2.73,-1.62 -1.25,-0.94 -0.98,-2.31 -0.75,-3.64 0.08,-0.46 0.63,-1.12 0.99,-1.41 0.46,-0.35 1.21,-0.83 1.8,-0.83 1.14,0 2.61,0.57 3.69,0.25 -0.44,-1.24 -2,-0.63 -2.51,-1.58 -0.51,-0.93 1.54,-1.43 2.07,-1.59 1.19,-0.35 2.38,-0.76 3.52,-1.24 1.33,-0.56 2.68,-1.83 4.17,-1.84 -0.42,3.32 -2.33,6.62 -3.76,9.6 -1.6,3.33 -3.16,6.69 -4.71,10.04 -1.5,3.26 -3.25,6.39 -4.77,9.65 -0.8,1.71 -1.59,3.42 -2.44,5.11 -0.81,1.6 -1.82,3.03 -2.72,4.56 -0.63,1.07 -1.05,1.47 -2.3,1.54 -0.82,0.04 -2.37,-0.1 -2.79,-0.89 -0.55,-1.05 -0.45,-2.01 -0.01,-3.1 0.42,-1.05 1.18,-1.93 2.25,-2.38 1.04,-0.45 1.96,0.12 3,0.12 m 42.75,5.75 c 0.4,-0.59 1.17,-1.78 1,-2.5 -0.8,0.47 -1.37,1.61 -1.5,2.5 0.16,0 0.35,0.03 0.5,0 m -43.25,-26 c -0.33,0.49 -1.65,1.75 -1.58,2.38 0.02,0.13 0.33,0.39 0.32,0.41 -0.68,2.15 -1.4,4.29 -2.02,6.46 -0.39,1.36 -0.58,3.74 -1.97,4.52 -0.15,-0.85 -0.23,-1.63 -0.25,-2.5 -0.92,1.79 0.73,3.97 -0.59,5.8 -0.67,0.92 -1.27,1.74 -2.09,2.52 -0.51,0.48 -1.73,1.46 -1.54,2.29 0.25,1.07 0.91,3.14 -0.78,3.39 0.19,-0.78 0.12,-1.32 0.02,-2.12 -0.06,-0.49 -0.77,-1.12 -1.25,-0.98 -0.61,0.18 -1.58,0.23 -1.89,0.89 -0.3,0.64 -0.61,1.24 -0.63,1.96 -0.96,-0.23 -0.78,-1.96 -0.34,-2.55 0.35,-0.47 0.67,-0.94 0.99,-1.43 0.5,-0.76 -0.01,-2.79 -0.08,-3.63 -0.13,-1.54 -0.5,-2.86 0.46,-4.22 0.63,-0.9 1.53,-1.58 2.28,-2.4 0.68,-0.75 1.26,-1.48 1.26,-2.54 0,-1.42 0.27,-2.42 1.27,-3.49 0.91,-0.97 0.46,-1.96 0.18,-3.1 -0.14,-0.57 -0.57,-1.92 -0.01,-2.39 0.64,-0.54 1.33,1.62 1.25,2 0.39,-0.71 0.02,-1.51 0,-2.25 0.35,0.05 0.96,0.02 1.19,0.35 0.3,0.42 -0.2,1.23 0.32,1.59 0.37,0.27 1.1,0.12 1.31,-0.3 0.36,-0.72 0.22,-0.64 1.18,-0.64 -0.32,1.11 -1.61,2.42 -2.57,3.04 -0.37,0.24 -0.42,0.24 -0.6,-0.13 -0.2,-0.41 -0.33,-0.96 -0.33,-1.41 -0.48,0.91 0.1,2.07 0.25,3 1.29,-0.69 1.98,-2.08 3.1,-2.98 1.12,-0.91 2.09,-2.19 1.93,-3.71 -0.15,-1.5 -0.7,-2.98 -0.78,-4.48 -0.03,-0.51 -0.37,-1.67 0.42,-1.56 0.53,0.08 0.62,0.02 0.87,0.49 0.19,0.35 0.2,0.59 0.2,0.99 0.38,-0.82 0.17,-1.74 1.26,-2 1.41,-0.34 1.49,0.13 1.49,1.25 0.46,-0.87 1.08,-1.89 2.25,-1.71 0.54,0.08 0.79,0.07 0.62,0.65 -0.76,2.57 -1.86,5.03 -2.71,7.57 -0.98,2.95 -1.92,5.92 -2.95,8.85 -1.02,2.93 -2.09,5.84 -3.04,8.79 -0.86,2.69 -1.53,5.49 -2.65,8.09 -0.15,0.35 -0.63,1.09 -1.04,1.14 -0.5,0.06 -0.71,-0.91 -0.65,-1.27 0.35,-1.97 1.28,-3.98 1.91,-5.89 0.66,-2.01 1.31,-3.99 1.92,-6.01 0.65,-2.16 1.36,-4.3 2.06,-6.44 0.68,-2.03 1.77,-4.18 2.03,-6.29 m 24.25,25.5 a 0.677,0.677 0 0 1 1.25,0.25 c -0.43,0 -0.87,-0.06 -1.25,-0.25 m -20.25,0 c 0.48,-0.83 2.04,-0.78 2.25,0.25 -0.78,-0.02 -1.48,-0.11 -2.25,-0.25 m -13,-0.25 c 0.03,-0.61 0.04,-1.23 0.01,-1.84 -0.02,-0.54 -0.37,-1.25 -0.1,-1.77 0.5,-0.96 1.29,-2.64 2.59,-2.64 -0.16,1.3 -0.81,2.45 -1.2,3.69 -0.27,0.83 -0.5,2.04 -1.3,2.56 m -7.75,-0.25 c -0.01,-0.88 0.24,-1.67 0.5,-2.5 0.44,0.64 0.25,1.73 0.25,2.46 0,0.07 -0.64,0.04 -0.75,0.04 m -2,0 c -0.67,-1.25 0.07,-2.9 0.45,-4.13 0.58,-1.86 0.94,-3.78 1.48,-5.65 0.53,-1.81 1.34,-7.49 3.82,-7.97 0.13,0.6 -0.2,1.26 -0.39,1.8 -0.3,0.86 -0.49,1.76 -0.72,2.64 -0.54,1.93 -1.21,3.83 -1.73,5.77 -0.42,1.58 -0.77,3.19 -1.16,4.78 -0.23,0.9 -0.6,2.59 -1.75,2.76 m 6.75,-0.25 c 0.06,-0.38 0.26,-1.37 -0.39,-1.37 -0.57,0 -0.46,1.03 -0.36,1.37 -0.42,-0.1 -0.61,-0.59 -0.54,-1 0.19,-1.17 2.21,-1.31 2.18,0 -0.02,0.56 -0.26,1.11 -0.89,1 m -11.75,-0.25 c -0.01,-1.3 0.88,-2.47 1.58,-3.51 0.73,-1.08 1.98,-1.87 2.61,-0.24 0.46,1.2 -0.05,2.63 -0.7,3.61 -0.64,0.97 -2.65,-0.01 -3.49,0.14 m 47.5,-1 c 0.72,0.07 1.63,-0.02 2,0.75 -0.6,-0.07 -1.83,0.06 -2,-0.75 m 2.5,-0.25 c -1.16,-1.75 0.46,-3.89 1.33,-5.38 1.32,-2.27 2.45,-5.1 3.17,-7.62 0.62,0.68 0.03,1.99 -0.24,2.7 -0.48,1.25 -0.65,2.59 -1.13,3.84 -0.5,1.32 -1,2.66 -1.44,4.01 -0.29,0.85 -0.61,2.28 -1.69,2.45 m -3,-1.5 c 0.64,0 1.22,0.13 1.75,0.5 -0.46,0.6 -1.65,0.23 -1.75,-0.5 m 21,0.5 c 0.43,-0.64 0.9,-1.47 1,-2.25 -0.55,0.31 -1.82,1.68 -1,2.25 m -60.25,0 c 0.05,-1.17 0.2,-3.49 1.25,-4.25 1.14,1.6 0.15,3.26 -1.25,4.25 m 39.75,-1.25 c -0.15,-1.17 2.95,0 0,0 M 206.53,274.8 c -1.21,0.14 -2.08,1.31 -2.93,2.06 -0.77,0.68 -1.78,1.45 -2.16,2.44 -0.37,0.96 0.01,2.13 0.22,3.09 0.27,1.21 0.35,2.46 0.63,3.66 1.01,-0.16 1.77,-1.07 2.46,-1.75 0.88,-0.85 1.8,-1.7 2.42,-2.77 0.52,-0.91 0.14,-2.02 -0.05,-2.96 -0.24,-1.23 -0.56,-2.52 -0.59,-3.77 m -4.25,6.25 c 1.4,-0.19 0.07,1.32 0.65,1.88 0.28,0.26 0.93,0.09 1.09,-0.22 0.2,-0.4 0.29,-0.7 0.26,-1.15 1.7,0.38 -0.15,2.79 -1.1,2.92 -0.37,0.05 -0.59,0.18 -0.7,-0.22 -0.27,-0.93 -0.67,-2.3 -0.2,-3.21 m 35.5,3.25 c 0.06,-0.33 -0.1,-0.64 -0.09,-0.97 0.02,-0.68 -0.02,-0.75 0.48,-1.19 0.97,-0.85 2.07,-1.47 2.92,-2.46 0.75,-0.88 1.35,-1.88 1.94,-2.88 0.26,0.67 -0.39,1.43 -0.58,2.04 -0.27,0.86 -0.59,1.7 -0.97,2.52 -0.62,1.37 -2.09,2.99 -3.7,2.94 m -12,0 c -0.66,-0.38 -1.4,-0.9 -1.98,-1.4 -0.9,-0.78 -0.65,-1.44 -0.11,-2.39 0.53,-0.94 1.1,-1.85 1.53,-2.84 0.26,-0.61 0.59,-1.44 1.31,-1.62 -0.03,1.59 -0.08,3.23 -0.27,4.81 -0.1,0.89 0.1,2.7 -0.48,3.44 m 33.25,-0.25 c 0.21,-0.64 0.56,-1.31 0.5,-2 -0.56,0.48 -0.98,1.25 -1,2 0.16,0 0.35,0.03 0.5,0 m -65,-0.75 c 0.24,-1.55 1.64,-3.22 2.5,-4.5 0.47,0.72 -0.37,2.08 -0.66,2.74 -0.36,0.78 -0.99,1.48 -1.84,1.76 m 41.75,-2.75 c 0.62,0.03 1.85,-0.13 2.25,0.5 -0.74,0.38 -1.82,0.28 -2.25,-0.5 m 24,0.5 c 0.13,-0.75 0.57,-1.46 0.5,-2.25 -0.39,0.24 -0.83,0.07 -1.25,0 -0.38,-0.06 -1.35,-0.09 -1,0.63 0.24,0.49 1.04,0.12 1.25,0.36 0.41,0.5 -0.56,1.41 0.5,1.26 m -55.75,-0.5 c -0.57,-0.34 -0.14,-1.33 0.5,-1 0.67,0.35 0.12,1.11 -0.5,1 m -1.5,-0.25 c -0.28,-1.39 1.38,0.27 0,0 m 35.75,-0.25 c 0.25,-0.41 0.47,-0.77 1,-0.5 -0.23,0.32 -0.61,0.5 -1,0.5 m -32,0 c -0.29,-0.46 -0.8,-1.76 -1.3,-1.95 -0.73,-0.28 -1.44,0.82 -2.2,0.45 0.3,-0.53 2.39,-3.25 3.25,-2.75 0.66,0.37 0.63,3.77 0.25,4.25 m 29.5,-1 c 0.36,-0.08 0.71,0.14 0.75,0.5 -0.3,-0.11 -0.54,-0.24 -0.75,-0.5 m -31.25,0.25 c 0.03,-0.42 0.05,-0.84 0.5,-1 -0.01,0.39 -0.17,0.77 -0.5,1 m 55.75,-0.75 c 0.15,-0.97 0.29,-1.98 0.5,-2.94 0.17,-0.75 0.6,-1.52 0.5,-2.31 -0.62,0.37 -1.07,1.33 -1.25,2 -0.47,-0.3 -0.97,-0.58 -1.5,-0.75 0.03,0.9 0.79,3.61 1.75,4 m -22.25,-0.5 c 0.17,-1.04 1.16,-1.71 1.93,-2.29 0.81,-0.61 1.51,-1.78 2.57,-1.96 -0.28,1.03 -0.96,2.05 -1.66,2.84 -0.63,0.72 -1.77,1.99 -2.84,1.41 m -2,0 c -0.08,-0.39 0.37,-0.88 0.75,-0.5 0.55,0.46 -0.65,0.5 -0.75,0.5 m 0,-1.75 c 0.23,-0.18 0.47,-0.22 0.75,-0.25 0.54,-0.05 0.85,-0.12 0.75,0.5 -0.51,-0.01 -1.04,0 -1.5,-0.25 m -27.75,0 c 0.79,-1.03 1.54,-1.81 2.19,-2.97 0.24,-0.42 -0.03,-1.32 -0.06,-1.79 -0.05,-0.71 -0.04,-1.32 0.35,-1.94 0.38,-0.62 0.96,-1.13 1.28,-1.79 -0.59,0.29 -1.41,0.98 -1.75,1.53 -0.23,0.37 -0.6,0.77 -0.62,1.22 -0.02,0.4 0.26,0.85 0.29,1.25 0.05,0.81 -0.01,1.82 -0.58,2.46 -0.42,0.44 -1.57,1.3 -1.1,2.03 m -7.25,-0.25 c 0.33,-2.08 1.15,-4.05 1.69,-6.08 0.35,-1.32 0.74,-3.2 2.06,-3.92 0.3,0.9 0.76,1.98 0.28,2.89 -0.41,0.78 -1.32,1.6 -1.4,2.51 -0.09,1.03 0.16,2.03 -0.38,2.92 -0.44,0.74 -1.34,1.66 -2.25,1.68 m 36.5,-0.75 c -0.06,-0.6 1.38,-0.9 1.75,-0.5 0.64,0.68 -1.53,0.5 -1.75,0.5 m -1.25,-0.75 c 0.35,0.05 0.69,0.07 1,0.25 -0.34,0.31 -0.84,0.16 -1,-0.25 m -28.5,-0.15 c 0.85,-0.42 1.43,-1.32 1.17,-2.34 -0.16,-0.59 -1.38,-1.73 -2.02,-1.28 -0.79,0.56 -1.67,1.13 -1.33,2.28 0.33,1.09 1.09,1.58 2.18,1.34 m 37,-0.35 c -0.33,-0.5 -0.57,-1.04 -0.67,-1.63 -0.07,-0.46 0.09,-1.84 0.84,-1.47 0.3,0.14 0.83,0.24 0.85,0.59 0.03,0.42 0.05,0.77 -0.01,1.18 -0.09,0.58 -0.33,1.46 -1.01,1.33 m -6.5,-0.25 c -0.06,-2 2.01,-1.13 3.25,-1.5 -0.26,1.39 -2.17,1.47 -3.25,1.5 m -30.5,-0.5 c -0.01,-0.6 -0.42,-1.12 -1,-1.25 -0.01,0.63 0.27,1.18 0.5,1.75 -0.6,0 -0.95,-0.42 -1.15,-0.94 -0.06,-0.16 0.52,-1.36 0.69,-1.44 0.4,-0.2 1.17,0.63 1.49,0.86 0.38,0.28 -0.27,0.95 -0.53,1.02 m 28.75,-0.25 c 0.36,-0.08 0.71,0.14 0.75,0.5 -0.3,-0.11 -0.54,-0.24 -0.75,-0.5 m 0.25,-1 c -0.15,-1.17 2.95,0 0,0 m 24.5,-0.25 c 0.25,-0.49 0.38,-0.97 0.5,-1.5 -0.46,0.26 -0.86,1.02 -0.5,1.5 m -24,-1.75 c 0.89,0 1.63,0.08 2.5,0.25 -0.57,0.55 -2.3,0.75 -2.5,-0.25 m 6,-2.5 c 0.71,0.15 0.85,2.17 1.5,1.75 0.19,-0.12 0.41,-0.84 0.59,-1.05 0.33,-0.4 0.64,-0.61 1.16,-0.7 -0.11,1.18 0.06,2.63 -1.5,2.58 -0.65,-0.02 -1.2,-0.53 -1.72,-0.85 -0.22,-0.14 -0.11,-1.45 -0.03,-1.73 m -5.5,1.5 c 0.59,-0.95 4.07,-0.38 4.25,0.75 -1.31,-0.04 -3.05,-0.14 -4.25,-0.75 m 24,-0.5 c 0.1,-0.37 0.33,-0.87 0.25,-1.25 -0.35,0.26 -0.53,0.89 -0.25,1.25 m -23.25,-1.5 c 0.83,0 3.26,0.04 3.25,1.25 -0.8,-0.02 -3.29,-0.02 -3.25,-1.25 m 0.75,-0.5 v -0.75 c 1.02,0.08 2.08,0.01 3,0.5 -0.68,0.93 -2.07,0.18 -3,0.25 m 6.25,-0.25 c 0,-1.23 0.29,-2.54 0.5,-3.75 0.37,0.44 0.27,1.11 0.2,1.64 -0.1,0.64 -0.07,1.7 -0.7,2.11 m -1.25,0 c -0.6,-1.09 0.21,-3.14 0.5,-4.25 0.42,0.51 0.24,1.34 0.19,1.95 -0.06,0.76 0.02,1.81 -0.69,2.3 m -35.5,-0.5 c 0.01,-0.12 0.56,-1.21 0.74,-0.69 0.14,0.41 -0.4,0.75 -0.74,0.69 m 31.25,-1 c 0.31,-0.48 0.88,-0.43 1.38,-0.37 0.27,0.04 0.55,0.09 0.83,0.1 0.46,0.02 0.29,0.34 0.29,0.76 -0.89,-0.03 -1.73,0.02 -2.5,-0.49 m -25.75,0.25 c 0.26,-1.74 1.87,-3.97 1.5,-5.75 -0.46,0.34 -0.67,1.2 -0.75,1.75 -0.25,-0.12 -0.58,-0.17 -0.5,-0.5 -0.49,0.61 -0.15,1.6 -0.22,2.31 -0.06,0.63 -0.47,1.61 -0.03,2.19 m -2.5,-1 c -0.04,-0.92 -0.7,-2.52 -1.45,-2.97 -0.58,-0.35 -1.01,0.24 -1.42,0.56 -0.46,0.35 -1.09,0.31 -1.63,0.41 0.12,-0.81 0.84,-1.29 1.41,-1.78 0.68,-0.59 1.27,-1.9 2.19,-2.12 0.44,-0.1 0.39,-0.1 0.56,0.31 0.3,0.7 1.54,5.74 0.34,5.59 m -1.25,0 c 0.06,-0.13 0.35,-0.91 0.57,-0.69 0.39,0.4 -0.11,0.79 -0.57,0.69 m 30.5,-1 c 0.66,0 2.12,-0.17 2.25,0.75 -0.66,0 -2.11,0.16 -2.25,-0.75 m -32,0.5 c -0.17,-0.7 0.49,-0.67 1,-0.75 v 1 c -0.35,-0.06 -0.69,-0.07 -1,-0.25 m -1,0 c -0.46,-0.29 -0.28,-0.94 0.25,-1 0.04,0.36 -0.03,0.69 -0.25,1 m 34.25,-1.25 c 0.37,-0.31 0.79,-0.49 1.25,-0.25 -0.35,0.28 -0.81,0.24 -1.25,0.25 m -32.75,-0.25 c -0.1,-0.52 0.17,-0.75 0.67,-0.75 0.31,0 0.3,0.81 0.33,1 -0.35,-0.06 -0.69,-0.07 -1,-0.25 m 4.75,-2 c 0,-0.6 -0.13,-1.16 -0.25,-1.75 -0.31,0.42 -0.1,1.38 0.25,1.75 m 1.75,-1 c 0.08,-0.45 0.34,-1.05 0.25,-1.5 -0.36,0.35 -0.57,1.08 -0.25,1.5 m -6.5,-0.5 c 0.14,-0.72 0.74,-1.6 1.5,-1.75 -0.32,0.68 -0.87,1.34 -1.5,1.75 m 2,-3 c 0.25,-1.7 1.81,-2.11 3.29,-2.21 2.22,-0.15 4.3,-0.58 6.46,-1.11 4.79,-1.18 9.92,-3.38 13.77,-6.49 3.47,-2.79 6.11,-6.68 7.61,-10.87 1.54,-4.33 1.84,-8.39 0.02,-12.69 -1.17,-2.75 -3.67,-4.64 -5.72,-6.69 -0.35,-0.33 -0.07,-0.44 0.1,-0.69 0.65,-0.93 1.65,-0.65 2.47,-0.09 1.71,1.17 3.63,2.75 4.63,4.62 1.09,2.05 1.79,3.89 2.21,6.17 0.82,4.43 -0.55,9.05 -2.41,13.04 -2.73,5.86 -7.6,10.39 -13.67,12.65 -1.48,0.55 -2.67,1.62 -4.18,2.11 -1.6,0.52 -3.26,0.96 -4.9,1.36 -1.65,0.41 -3.33,0.72 -5.02,0.97 -1.31,0.18 -3.43,0.58 -4.66,-0.08 m 27,-3.5 c -0.01,-1.24 0.7,-2.36 1.19,-3.46 0.62,-1.4 1.21,-2.81 1.79,-4.23 0.47,-1.18 1.11,-2.28 1.72,-3.39 0.71,-1.29 1.27,-2.67 2.05,-3.92 1.19,0.74 1.57,3.04 1.88,4.27 0.22,0.88 0.35,1.75 0.37,2.65 0.03,0.98 0.31,2.06 0.07,3.02 -0.26,1.02 -3.18,1.17 -3.99,1.52 -1.87,0.83 -3.48,2.28 -5.08,3.54 m -16.75,-13 c 0.54,-0.64 1.92,-1.37 2.75,-1.5 -0.52,0.99 -1.67,1.52 -2.75,1.5 m 17.25,-6 c 0,-2.1 1,-4.11 1,-6.25 1.31,0.26 0.77,2.28 0.75,3.21 -0.02,1.13 -0.43,2.77 -1.75,3.04 m -4,-0.5 c 0.17,-0.93 1.08,-1.48 1.74,-2.06 0.71,-0.63 1.28,-1.69 2.26,-1.94 0.16,1.01 -0.94,1.92 -1.59,2.51 -0.66,0.62 -1.48,1.34 -2.41,1.49 m -3,-9.5 c 0.16,-1.07 0.86,-2.02 1.46,-2.88 0.7,-1 1.26,-2.15 2.05,-3.08 0.58,-0.68 1.31,-0.59 2.04,-0.17 1.48,0.86 2.45,2.28 3.53,3.57 0.88,1.04 1.78,2.64 1.67,4.05 -1.89,-0.23 -3.54,-1.29 -5.34,-1.84 -0.87,-0.26 -1.77,-0.43 -2.68,-0.31 -0.93,0.12 -1.78,0.61 -2.73,0.66"
         id="path143" />
    </g>
    <g
       id="aw"
       transform="matrix(0.4,0,0,0.4,236.59,667.12)">
      <path
         id="bo"
         transform="translate(-1.35,-0.76)"
         d="m 355.65,280.19 c 0,0 -3.75,-8.1 -8.1,-12.6 -4.36,-4.51 -9.68,-7.58 -11.04,-6.53"
         fill="#ffffff"
         fill-opacity="1"
         fill-rule="evenodd" />
      <path
         id="bn"
         d="m 368.97,258.94 c -2.29,0.08 -5.9,1.92 -7.85,3.87 -2.59,2.6 -3.52,7.58 -3.59,9.44 -0.07,1.86 -1.32,-0.84 -2.19,-2.37 -0.86,-1.54 -1.93,-5.4 -2.22,-3.22 -0.28,2.2 -0.34,3.26 0.07,5.72 0.4,2.45 1.59,7.15 2.56,8.68 l 3.97,3.94 c 1.87,-1.88 3.1,-6.25 3.19,-6.25 l -0.07,9.34 4.35,4.32 c -1.16,-2.37 -1.94,-6.58 -1.63,-10.38 0.32,-3.8 2.3,-8.59 2.06,-10.44 -1.14,-0.4 -2.9,2.58 -5.21,1.88 -0.08,-1.75 0.74,-6.02 1.9,-7.69 1.17,-1.66 4.43,-5.7 6.41,-6.28 -0.36,-0.42 -0.99,-0.59 -1.75,-0.56 z"
         fill="#ffffff"
         fill-opacity="1"
         fill-rule="evenodd" />
      <path
         id="bp"
         transform="translate(-1.35,-0.76)"
         d="m 329.36,254.28 c 9.62,-4.95 19.64,8.3 19.64,8.3 0,0 1.44,-9.25 3.32,-9.36 1.88,-0.11 4.87,7.31 4.87,7.31 0,0 5.76,-7.64 15.72,-7.58 9.97,0.05 11.57,9.13 5.87,9.57 -5.66,0.44 -2.38,-5.15 -2.27,-3.65 0.06,0.17 -5.37,-7.75 -19.15,7.86 -2.03,2.3 -3.94,-8.46 -4.93,-6.09 -1.21,2.88 -0.22,6.26 -1.11,8.53 1.39,1.71 -11.35,-13.84 -16.77,-9.58"
         fill="#ffffff"
         fill-opacity="1"
         fill-rule="evenodd" />
      <use
         transform="matrix(0,1,1,0,74.5,-74.49)"
         fill="#ffffff"
         fill-opacity="1"
         xlink:href="#bp"
         id="use303" />
      <use
         transform="matrix(0,1,1,0,74.9,-74.93)"
         fill="#ffffff"
         fill-opacity="1"
         xlink:href="#bo"
         id="use305" />
      <use
         transform="matrix(0,1,1,0,74.82,-74.82)"
         fill="#ffffff"
         fill-opacity="1"
         xlink:href="#bn"
         id="use307" />
    </g>
    <path
       id="ae"
       d="m 0,0 c 0,3.78 3.09,6.87 6.87,6.87 h 152.845 c 3.77,0 6.86,-3.09 6.86,-6.87 v -228.4 c 0,-3.78 -3.09,-6.87 -6.86,-6.87 H 6.87 c -3.78,0 -6.87,3.09 -6.87,6.87 z"
       fill="#ffffff"
       stroke="#000000"
       stroke-width="2.5" />
    <switch
       id="ai">
      <text
         transform="scale(0.56453,1)"
         font-family="'DejaVu Serif'"
         font-size="41px"
         font-weight="bold"
         systemLanguage="en"
         id="text338">Q</text>
      <text
         transform="scale(0.56453,1)"
         font-family="'DejaVu Serif'"
         font-size="41px"
         font-weight="bold"
         systemLanguage="fr, de"
         id="text340">D</text>
      <text
         transform="scale(0.56453,1)"
         font-family="'DejaVu Serif'"
         font-size="41px"
         font-weight="bold"
         id="text342">Q</text>
    </switch>
  </defs>
  <use
     x="1843.3199"
     y="729.41199"
     xlink:href="#ae"
     id="use2486"
     transform="translate(-1842.2699,-729.11527)" />
  <g
     fill="none"
     stroke="#000000"
     id="g2490"
     transform="translate(-1842.2699,-729.11527)">
    <path
       d="m 1851.3,554.3 v 177.39 h 132.28 m 19.3,-56.3 V 497.75 H 1870.6"
       id="path2488" />
  </g>
  <use
     transform="matrix(-2.4,0,0,-2.4,1916.5301,320.48473)"
     x="783.08698"
     y="218.66499"
     xlink:href="#ac"
     id="use2492" />
  <path
     d="m 18.630103,-223.30527 h 9.693 v 37.968 h -9.693 z"
     fill="#ffffff"
     id="path2494" />
  <use
     transform="matrix(2.4,0,0,2.4,-1842.2699,-729.11527)"
     x="822.84003"
     y="293.647"
     xlink:href="#ac"
     id="use2496" />
  <path
     d="m 141.8301,-43.34527 h 9.693 v 37.9679997 h -9.693 z"
     fill="#ffffff"
     id="path2498" />
  <g
     transform="rotate(-1.8,-22200.586,58886.601)"
     id="g2610">
    <path
       d="m 1881,681.62 92.22,-133.81"
       stroke="#000000"
       stroke-width="7.25"
       id="path2500" />
    <circle
       cx="1883.4"
       cy="678.56"
       r="2.2"
       fill="#ffffff"
       id="circle2502" />
    <circle
       cx="1883.4"
       cy="678.56"
       r="0.69999999"
       id="circle2504" />
    <circle
       cx="1886.8"
       cy="673.65997"
       r="2.2"
       fill="#ffffff"
       id="circle2506" />
    <circle
       cx="1886.8"
       cy="673.65997"
       r="0.69999999"
       id="circle2508" />
    <circle
       cx="1890.2"
       cy="668.77002"
       r="2.2"
       fill="#ffffff"
       id="circle2510" />
    <circle
       cx="1890.2"
       cy="668.77002"
       r="0.69999999"
       id="circle2512" />
    <circle
       cx="1893.5"
       cy="663.87"
       r="2.2"
       fill="#ffffff"
       id="circle2514" />
    <circle
       cx="1893.5"
       cy="663.87"
       r="0.69999999"
       id="circle2516" />
    <circle
       cx="1896.9"
       cy="658.97998"
       r="2.2"
       fill="#ffffff"
       id="circle2518" />
    <circle
       cx="1896.9"
       cy="658.97998"
       r="0.69999999"
       id="circle2520" />
    <circle
       cx="1900.3"
       cy="654.08002"
       r="2.2"
       fill="#ffffff"
       id="circle2522" />
    <circle
       cx="1900.3"
       cy="654.08002"
       r="0.69999999"
       id="circle2524" />
    <circle
       cx="1903.7"
       cy="649.19"
       r="2.2"
       fill="#ffffff"
       id="circle2526" />
    <circle
       cx="1903.7"
       cy="649.19"
       r="0.69999999"
       id="circle2528" />
    <circle
       cx="1907"
       cy="644.29999"
       r="2.2"
       fill="#ffffff"
       id="circle2530" />
    <circle
       cx="1907"
       cy="644.29999"
       r="0.69999999"
       id="circle2532" />
    <circle
       cx="1910.4"
       cy="639.40002"
       r="2.2"
       fill="#ffffff"
       id="circle2534" />
    <circle
       cx="1910.4"
       cy="639.40002"
       r="0.69999999"
       id="circle2536" />
    <circle
       cx="1913.8"
       cy="634.5"
       r="2.2"
       fill="#ffffff"
       id="circle2538" />
    <circle
       cx="1913.8"
       cy="634.5"
       r="0.69999999"
       id="circle2540" />
    <circle
       cx="1917.2"
       cy="629.60999"
       r="2.2"
       fill="#ffffff"
       id="circle2542" />
    <circle
       cx="1917.2"
       cy="629.60999"
       r="0.69999999"
       id="circle2544" />
    <circle
       cx="1920.5"
       cy="624.71997"
       r="2.2"
       fill="#ffffff"
       id="circle2546" />
    <circle
       cx="1920.5"
       cy="624.71997"
       r="0.69999999"
       id="circle2548" />
    <circle
       cx="1923.9"
       cy="619.82001"
       r="2.2"
       fill="#ffffff"
       id="circle2550" />
    <circle
       cx="1923.9"
       cy="619.82001"
       r="0.69999999"
       id="circle2552" />
    <circle
       cx="1927.3"
       cy="614.92999"
       r="2.2"
       fill="#ffffff"
       id="circle2554" />
    <circle
       cx="1927.3"
       cy="614.92999"
       r="0.69999999"
       id="circle2556" />
    <circle
       cx="1930.6"
       cy="610.03003"
       r="2.2"
       fill="#ffffff"
       id="circle2558" />
    <circle
       cx="1930.6"
       cy="610.03003"
       r="0.69999999"
       id="circle2560" />
    <circle
       cx="1934"
       cy="605.14001"
       r="2.2"
       fill="#ffffff"
       id="circle2562" />
    <circle
       cx="1934"
       cy="605.14001"
       r="0.69999999"
       id="circle2564" />
    <circle
       cx="1937.4"
       cy="600.23999"
       r="2.2"
       fill="#ffffff"
       id="circle2566" />
    <circle
       cx="1937.4"
       cy="600.23999"
       r="0.69999999"
       id="circle2568" />
    <circle
       cx="1940.8"
       cy="595.34998"
       r="2.2"
       fill="#ffffff"
       id="circle2570" />
    <circle
       cx="1940.8"
       cy="595.34998"
       r="0.69999999"
       id="circle2572" />
    <circle
       cx="1944.1"
       cy="590.45001"
       r="2.2"
       fill="#ffffff"
       id="circle2574" />
    <circle
       cx="1944.1"
       cy="590.45001"
       r="0.69999999"
       id="circle2576" />
    <circle
       cx="1947.5"
       cy="585.56"
       r="2.2"
       fill="#ffffff"
       id="circle2578" />
    <circle
       cx="1947.5"
       cy="585.56"
       r="0.69999999"
       id="circle2580" />
    <circle
       cx="1950.9"
       cy="580.65997"
       r="2.2"
       fill="#ffffff"
       id="circle2582" />
    <circle
       cx="1950.9"
       cy="580.65997"
       r="0.69999999"
       id="circle2584" />
    <circle
       cx="1954.3"
       cy="575.77002"
       r="2.2"
       fill="#ffffff"
       id="circle2586" />
    <circle
       cx="1954.3"
       cy="575.77002"
       r="0.69999999"
       id="circle2588" />
    <circle
       cx="1957.6"
       cy="570.87"
       r="2.2"
       fill="#ffffff"
       id="circle2590" />
    <circle
       cx="1957.6"
       cy="570.87"
       r="0.69999999"
       id="circle2592" />
    <circle
       cx="1961"
       cy="565.97998"
       r="2.2"
       fill="#ffffff"
       id="circle2594" />
    <circle
       cx="1961"
       cy="565.97998"
       r="0.69999999"
       id="circle2596" />
    <circle
       cx="1964.4"
       cy="561.08002"
       r="2.2"
       fill="#ffffff"
       id="circle2598" />
    <circle
       cx="1964.4"
       cy="561.08002"
       r="0.69999999"
       id="circle2600" />
    <circle
       cx="1967.8"
       cy="556.19"
       r="2.2"
       fill="#ffffff"
       id="circle2602" />
    <circle
       cx="1967.8"
       cy="556.19"
       r="0.69999999"
       id="circle2604" />
    <circle
       cx="1971.1"
       cy="551.28998"
       r="2.2"
       fill="#ffffff"
       id="circle2606" />
    <circle
       cx="1971.1"
       cy="551.28998"
       r="0.69999999"
       id="circle2608" />
  </g>
  <use
     x="1847.3199"
     y="526.67499"
     xlink:href="#ai"
     id="use2612"
     transform="translate(-1842.2699,-729.11527)" />
  <use
     transform="rotate(180,1085.7651,338.19236)"
     x="2006.9"
     y="702.75201"
     xlink:href="#ai"
     id="use2614" />
  <use
     transform="rotate(180,935.86505,179.74236)"
     x="1856.97"
     y="544.29498"
     xlink:href="#ac"
     id="use2616" />
  <use
     x="1997.25"
     y="685.13202"
     xlink:href="#ac"
     id="use2618"
     transform="translate(-1842.2699,-729.11527)" />
  <use
     transform="matrix(0.99,0,0,0.99,-111.1699,-381.45527)"
     width="2178.4751"
     height="1215.688"
     xlink:href="#bh"
     id="use2620" />
  <use
     transform="matrix(-0.99,0,0,-0.99,280.9301,152.58473)"
     width="2178.4751"
     height="1215.688"
     xlink:href="#bh"
     id="use2622" />
</svg>
