<?xml version="1.0" encoding="UTF-8" standalone="no"?>
<svg
   width="169.01294"
   height="244.55022"
   viewBox="-0.2 -236 169.07502 244.55023"
   version="1.1"
   id="svg2917"
   sodipodi:docname="Svg-cards-2.0.svg"
   xmlns:inkscape="http://www.inkscape.org/namespaces/inkscape"
   xmlns:sodipodi="http://sodipodi.sourceforge.net/DTD/sodipodi-0.dtd"
   xmlns:xlink="http://www.w3.org/1999/xlink"
   xmlns="http://www.w3.org/2000/svg"
   xmlns:svg="http://www.w3.org/2000/svg">
  <sodipodi:namedview
     id="namedview2919"
     pagecolor="#505050"
     bordercolor="#eeeeee"
     borderopacity="1"
     inkscape:showpageshadow="0"
     inkscape:pageopacity="0"
     inkscape:pagecheckerboard="0"
     inkscape:deskcolor="#505050"
     showgrid="false" />
  <defs
     id="defs354">
    <g
       id="af">
      <path
         transform="matrix(1,0,0,0.95,-231.99,5.602)"
         d="m 585.84,796.83 c -0.65,0.05 -2.12,0.95 0.23,-0.34 0.48,-0.26 -0.87,0.66 -1.17,1.11 -0.89,1.73 -0.46,3.67 0.15,5.43 1.29,3.4 2.77,6.73 4.02,10.15 0.75,1.79 0.1,3.43 -1.01,4.92 -1.17,1.45 -2.66,2.62 -4.2,3.67 l -1.55,0.61 c 1.55,-1.03 3.05,-2.19 4.24,-3.63 1.09,-1.43 1.75,-3.02 1.08,-4.77 -1.16,-3.45 -2.7,-6.77 -4,-10.17 -0.64,-1.77 -1.14,-3.76 -0.26,-5.54 0.8,-1.29 2.37,-2.25 3.86,-2.45 z"
         fill="none"
         stroke="#ffffff"
         stroke-miterlimit="40"
         stroke-opacity="1"
         stroke-width="0.32088"
         id="path295" />
      <path
         transform="matrix(-1,0,0,-0.95,939.17,1548.2)"
         d="m 585.84,796.83 c -0.65,0.05 -2.12,0.95 0.23,-0.34 0.48,-0.26 -0.87,0.66 -1.17,1.11 -0.89,1.73 -0.46,3.67 0.15,5.43 1.29,3.4 2.77,6.73 4.02,10.15 0.75,1.79 0.1,3.43 -1.01,4.92 -1.17,1.45 -2.66,2.62 -4.2,3.67 l -1.55,0.61 c 1.55,-1.03 3.05,-2.19 4.24,-3.63 1.09,-1.43 1.75,-3.02 1.08,-4.77 -1.16,-3.45 -2.7,-6.77 -4,-10.17 -0.64,-1.77 -1.14,-3.76 -0.26,-5.54 0.8,-1.29 2.37,-2.25 3.86,-2.45 z"
         fill="none"
         stroke="#ffffff"
         stroke-miterlimit="40"
         stroke-opacity="1"
         stroke-width="0.32088"
         id="path297" />
    </g>
    <g
       id="aw"
       transform="matrix(0.4,0,0,0.4,236.59,667.12)">
      <path
         id="bo"
         transform="translate(-1.35,-0.76)"
         d="m 355.65,280.19 c 0,0 -3.75,-8.1 -8.1,-12.6 -4.36,-4.51 -9.68,-7.58 -11.04,-6.53"
         fill="#ffffff"
         fill-opacity="1"
         fill-rule="evenodd" />
      <path
         id="bn"
         d="m 368.97,258.94 c -2.29,0.08 -5.9,1.92 -7.85,3.87 -2.59,2.6 -3.52,7.58 -3.59,9.44 -0.07,1.86 -1.32,-0.84 -2.19,-2.37 -0.86,-1.54 -1.93,-5.4 -2.22,-3.22 -0.28,2.2 -0.34,3.26 0.07,5.72 0.4,2.45 1.59,7.15 2.56,8.68 l 3.97,3.94 c 1.87,-1.88 3.1,-6.25 3.19,-6.25 l -0.07,9.34 4.35,4.32 c -1.16,-2.37 -1.94,-6.58 -1.63,-10.38 0.32,-3.8 2.3,-8.59 2.06,-10.44 -1.14,-0.4 -2.9,2.58 -5.21,1.88 -0.08,-1.75 0.74,-6.02 1.9,-7.69 1.17,-1.66 4.43,-5.7 6.41,-6.28 -0.36,-0.42 -0.99,-0.59 -1.75,-0.56 z"
         fill="#ffffff"
         fill-opacity="1"
         fill-rule="evenodd" />
      <path
         id="bp"
         transform="translate(-1.35,-0.76)"
         d="m 329.36,254.28 c 9.62,-4.95 19.64,8.3 19.64,8.3 0,0 1.44,-9.25 3.32,-9.36 1.88,-0.11 4.87,7.31 4.87,7.31 0,0 5.76,-7.64 15.72,-7.58 9.97,0.05 11.57,9.13 5.87,9.57 -5.66,0.44 -2.38,-5.15 -2.27,-3.65 0.06,0.17 -5.37,-7.75 -19.15,7.86 -2.03,2.3 -3.94,-8.46 -4.93,-6.09 -1.21,2.88 -0.22,6.26 -1.11,8.53 1.39,1.71 -11.35,-13.84 -16.77,-9.58"
         fill="#ffffff"
         fill-opacity="1"
         fill-rule="evenodd" />
      <use
         transform="matrix(0,1,1,0,74.5,-74.49)"
         fill="#ffffff"
         fill-opacity="1"
         xlink:href="#bp"
         id="use303" />
      <use
         transform="matrix(0,1,1,0,74.9,-74.93)"
         fill="#ffffff"
         fill-opacity="1"
         xlink:href="#bo"
         id="use305" />
      <use
         transform="matrix(0,1,1,0,74.82,-74.82)"
         fill="#ffffff"
         fill-opacity="1"
         xlink:href="#bn"
         id="use307" />
    </g>
    <g
       id="av"
       stroke-linecap="round"
       stroke-linejoin="round">
      <path
         transform="matrix(0.1532,0.3572,-0.3693,0.1584,564.04,448.89)"
         d="m 508.992,779.917 c -2.054,-1.516 -2.26,-4.512 -0.747,-6.48 1.827,-2.375 5.344,-2.595 7.638,-0.777 2.696,2.137 2.93,6.176 0.807,8.795 -2.447,3.018 -7.009,3.265 -9.953,0.837 -3.34,-2.755 -3.601,-7.842 -0.866,-11.11 2.394,-2.862 6.495,-3.76 9.915,-2.335"
         fill="none"
         stroke="#ffffff"
         stroke-width="1.251"
         id="path310" />
      <path
         transform="matrix(0.1532,0.3572,0.3693,-0.1584,-11.772,697.23)"
         d="m 507.265,776.876 c -0.309,-2.765 1.915,-5.165 4.616,-5.421 3.211,-0.304 5.98,2.289 6.239,5.435 0.3,3.658 -2.663,6.796 -6.255,7.057 -4.104,0.297 -7.612,-3.037 -7.874,-7.075 -0.296,-4.55 3.41,-8.429 7.894,-8.692 3.474,-0.203 6.793,1.741 8.422,4.797"
         fill="none"
         stroke="#ffffff"
         stroke-width="1.251"
         id="path312" />
    </g>
    <path
       id="ae"
       d="m 0,0 c 0,3.78 3.09,6.87 6.87,6.87 h 152.845 c 3.77,0 6.86,-3.09 6.86,-6.87 v -228.4 c 0,-3.78 -3.09,-6.87 -6.86,-6.87 H 6.87 c -3.78,0 -6.87,3.09 -6.87,6.87 z"
       fill="#ffffff"
       stroke="#000000"
       stroke-width="2.5" />
    <path
       id="ax"
       d="m 418.45,832.87 -1.61,0.58 c -1.01,0.51 -2.11,1.32 -2.44,1.79 -0.56,0.8 -0.64,0.8 -1.51,0.2 -1.38,-0.97 -1.66,-0.79 -1.44,0.9 0.2,1.47 0.16,1.52 -0.96,1.52 -1.39,0 -3,1.12 -4.24,2.94 -1.68,2.47 -0.64,7.28 1.7,9.12 1.48,1.17 2.11,0.6 0.74,-0.85 -1.47,-0.96 -2.59,-4.67 -1.99,-4.67 0.14,0 0.61,0.22 1.04,0.49 0.65,0.4 0.92,0.37 1.49,-0.2 0.61,-0.62 0.62,-0.69 0.05,-0.69 -1.15,0 -1.54,-2.43 -0.59,-3.69 0.58,-0.76 2.3,-1.51 3.45,-1.51 1.74,0 2.79,2.68 1.21,3.09 -0.44,0.11 -0.8,0.37 -0.8,0.57 0,0.64 1.27,0.88 2.04,0.4 1,-0.62 0.99,-0.63 1.54,0.69 0.26,0.63 0.98,1.64 1.6,2.22 l 0.72,0.7 v -2.61 c -0.11,-0.43 -0.21,-0.83 -0.25,-1.26 -0.05,-0.68 -2.96,-3.8 -3.53,-3.8 -0.21,0 -0.82,-0.47 -1.35,-1.05 l -0.97,-1.05 1.29,0.29 c 1.14,0.24 1.35,0.15 1.68,-0.72 0.47,-1.25 1.75,-2.03 3.13,-2.18 z m -0.2,1.98 c -1.11,0.05 -2.72,1.83 -2.36,3.27 l 0.25,0.99 1.63,-1.47 c 0.34,-0.32 0.5,-0.54 0.68,-0.78 v -1.96 c -0.06,-0.02 -0.12,-0.05 -0.2,-0.05 z m -5.61,11.26 c -0.29,-0.07 -0.49,0.19 -0.49,0.83 0,0.55 -0.18,1.12 -0.4,1.26 -0.22,0.14 -0.83,0.91 -0.83,1.44 l 0.06,0.83 3.07,-1.03 c 1.49,-0.51 2.97,-1.01 3.3,-1.13 0.4,-0.14 0.21,-0.32 -0.56,-0.52 -0.71,-0.19 -1.45,-0.13 -1.89,0.15 -0.6,0.38 -0.8,0.28 -1.23,-0.62 -0.36,-0.72 -0.74,-1.13 -1.03,-1.21 z m -4.32,0.29 c -0.8,0 -0.71,0.31 0.43,1.67 0.55,0.66 1,1.51 1,1.9 0,0.94 -1.5,2.83 -2.23,2.83 -0.76,0 -0.73,0.76 0.03,1.05 0.36,0.14 0.6,0.75 0.6,1.51 0,0.7 0.21,1.5 0.48,1.76 0.38,0.38 0.64,-0.15 1.19,-2.42 0.38,-1.6 0.7,-3.64 0.71,-4.55 0.02,-1.75 -1.16,-3.75 -2.21,-3.75 z m -3.79,0.46 c -0.29,0.1 -0.97,0.46 -1.6,1.11 -0.73,1.2 -0.88,1.59 -0.91,2.9 -0.03,0.95 0.11,2.07 0.31,2.49 0.3,0.65 0.22,0.73 -0.51,0.54 -1.11,-0.29 -1.6,0.46 -0.73,1.1 0.91,0.67 0.84,0.98 -0.54,2.4 l -0.95,0.97 h 1.1 c 0.02,-0.67 1.16,-1.03 2.64,-0.63 0.85,0.22 1.21,0.44 1.2,0.63 h 2.99 l -1.09,-0.9 c -0.89,-0.73 -1,-1.01 -0.6,-1.42 0.41,-0.41 0.36,-0.62 -0.29,-1.1 -0.75,-0.56 -0.75,-0.63 -0.1,-1 0.76,-0.43 0.95,-1.75 0.3,-2.15 -0.22,-0.14 -0.4,0.04 -0.4,0.39 0,0.85 -1.07,1.22 -1.81,0.61 -0.33,-0.27 -0.59,-0.94 -0.59,-1.48 0,-1.14 1.05,-3.32 1.6,-3.32 0.22,0 0.4,-0.27 0.4,-0.6 0,-0.45 -0.13,-0.63 -0.42,-0.54 z m 13.92,3.3 -0.55,0.84 c -0.38,0.58 -0.66,1.67 -0.63,2.42 0.05,1.5 -0.88,1.96 -1.3,0.64 -0.24,-0.74 -1.27,-1.41 -2.89,-1.86 -0.83,-0.23 -0.85,-0.17 -0.4,1.02 0.26,0.7 0.97,1.52 1.57,1.83 1.57,0.81 1.43,1.75 -0.25,1.75 -0.76,0 -1.81,0.37 -2.41,0.84 l -0.94,0.73 h 4.15 c -0.04,-0.13 0.27,-0.28 1.14,-0.53 1.24,-0.36 1.67,-0.73 1.95,-1.65 0.2,-0.66 0.46,-1.46 0.56,-1.79 z m -1.66,5.45 c 0.3,0.04 0.56,0.22 0.56,0.54 0,0.68 -1.08,1.16 -1.41,0.62 -0.13,-0.21 -0.12,-0.55 0.01,-0.77 0.19,-0.3 0.54,-0.42 0.84,-0.39 z"
       fill="#ffffff"
       fill-opacity="1" />
    <path
       id="ag"
       d="m 493.12,948.77 c -1.23,0 -2.22,0.99 -2.22,2.22 0,1.22 0.99,2.22 2.22,2.22 1.22,0 2.21,-1 2.21,-2.22 0,-1.23 -0.99,-2.22 -2.21,-2.22 z m -0.03,1.14 1.11,1.1 -1.06,1.06 -1.11,-1.11 z"
       fill="#ffffff"
       fill-opacity="1"
       fill-rule="evenodd" />
  </defs>
  <use
     x="335.14999"
     y="972.54999"
     xlink:href="#ae"
     id="use2794"
     transform="translate(-334.09998,-972.25336)" />
  <rect
     x="7.9844971"
     y="-228.4458"
     width="152.73051"
     height="229.2218"
     rx="3.1735909"
     ry="3.5423899"
     fill="#0062ff"
     fill-rule="evenodd"
     id="rect2796"
     style="stroke-width:1.2228" />
  <rect
     x="14.096924"
     y="-222.70898"
     width="140.51102"
     height="217.75983"
     rx="3.1741688"
     ry="3.5419877"
     fill="#0062ff"
     fill-rule="evenodd"
     stroke="#ffffff"
     stroke-linejoin="round"
     stroke-width="1.50121"
     id="rect2798" />
  <rect
     x="24.914001"
     y="-212.04535"
     width="118.93555"
     height="196.5392"
     rx="0"
     ry="0"
     fill="#0062ff"
     fill-rule="evenodd"
     stroke="#ffffff"
     stroke-linejoin="round"
     stroke-width="1.25108"
     id="rect2800" />
  <rect
     x="29.668884"
     y="-207.14496"
     width="109.41991"
     height="186.70958"
     rx="0"
     ry="0"
     fill="#0062ff"
     fill-rule="evenodd"
     stroke="#ffffff"
     stroke-linejoin="round"
     stroke-width="1.25105"
     id="rect2802" />
  <g
     id="az"
     transform="translate(-334.09998,-972.25336)">
    <g
       id="ay">
      <use
         transform="translate(-120.57,-156.03)"
         xlink:href="#ag"
         id="use2804" />
      <use
         transform="translate(-113.48,-156.03)"
         xlink:href="#ag"
         id="use2806" />
      <use
         transform="translate(-106.39,-156.03)"
         xlink:href="#ag"
         id="use2808" />
    </g>
    <g
       id="bs">
      <use
         transform="translate(-113.48,-163.13)"
         xlink:href="#ag"
         id="use2811" />
      <use
         transform="translate(-106.39,-170.22)"
         xlink:href="#ag"
         id="use2813" />
      <use
         transform="translate(-106.39,-163.13)"
         xlink:href="#ag"
         id="use2815" />
    </g>
    <g
       id="bt">
      <g
         id="au">
        <use
           transform="translate(-99.294,-177.31)"
           xlink:href="#ag"
           id="use2818" />
        <use
           transform="translate(-92.202,-177.31)"
           xlink:href="#ag"
           id="use2820" />
        <use
           transform="translate(-85.11,-177.31)"
           xlink:href="#ag"
           id="use2822" />
        <use
           transform="translate(-78.017,-177.31)"
           xlink:href="#ag"
           id="use2824" />
      </g>
      <use
         transform="translate(0,7.093)"
         xlink:href="#au"
         id="use2827" />
      <use
         transform="translate(0,14.185)"
         xlink:href="#au"
         id="use2829" />
      <use
         transform="translate(0,21.277)"
         xlink:href="#au"
         id="use2831" />
      <use
         transform="translate(0,28.37)"
         xlink:href="#au"
         id="use2833" />
    </g>
    <use
       transform="translate(0,35.462)"
       xlink:href="#au"
       id="use2836" />
    <use
       transform="translate(0,42.555)"
       xlink:href="#au"
       id="use2838" />
    <use
       transform="translate(0,49.647)"
       xlink:href="#au"
       id="use2840" />
    <use
       transform="translate(-21.277,56.74)"
       xlink:href="#bt"
       id="use2842" />
    <use
       transform="rotate(180,393.82,809.14)"
       xlink:href="#bs"
       id="use2844" />
    <use
       transform="translate(0,7.093)"
       xlink:href="#ay"
       id="use2846" />
    <use
       transform="translate(0,14.185)"
       xlink:href="#ay"
       id="use2848" />
    <use
       transform="translate(0,21.277)"
       xlink:href="#ay"
       id="use2850" />
    <use
       transform="translate(0,28.37)"
       xlink:href="#ay"
       id="use2852" />
  </g>
  <path
     d="m 35.400024,-116.15336 h 28.4 v 6.6 h -28.4 z"
     fill="#0062ff"
     id="path2855" />
  <use
     transform="matrix(1,0,0,-1,4.4140625e-6,-226.90672)"
     xlink:href="#az"
     id="use2857" />
  <use
     transform="matrix(-1,0,0,1,169.09004,-7.1014853e-8)"
     xlink:href="#az"
     id="use2859" />
  <path
     d="m 106.20002,-116.75336 h 28.4 v 6.6 h -28.4 z"
     fill="#0062ff"
     id="path2861" />
  <use
     transform="rotate(180,84.540022,-113.46336)"
     xlink:href="#az"
     id="use2863" />
  <use
     xlink:href="#ax"
     id="use2865"
     transform="translate(-334.09998,-972.25336)" />
  <use
     transform="matrix(-1,0,0,1,502.77002,-972.25336)"
     xlink:href="#ax"
     id="use2867" />
  <use
     transform="matrix(1,0,0,-1,-334.09998,744.44664)"
     xlink:href="#ax"
     id="use2869" />
  <use
     transform="rotate(180,251.39001,372.22332)"
     xlink:href="#ax"
     id="use2871" />
  <use
     xlink:href="#aw"
     id="use2873"
     transform="translate(-334.09998,-972.25336)" />
  <use
     transform="matrix(-1,0,0,1,504.06002,-972.25336)"
     xlink:href="#aw"
     id="use2875" />
  <use
     transform="matrix(1,0,0,-1,-334.09998,744.94664)"
     xlink:href="#aw"
     id="use2877" />
  <use
     transform="rotate(180,252.03001,372.46332)"
     xlink:href="#aw"
     id="use2879" />
  <use
     transform="rotate(-90,-196.32667,539.23331)"
     xlink:href="#av"
     id="use2881" />
  <use
     transform="rotate(180,251.43001,372.18332)"
     xlink:href="#av"
     id="use2883" />
  <use
     transform="rotate(90,737.55669,166.76333)"
     xlink:href="#av"
     id="use2885" />
  <use
     xlink:href="#av"
     id="use2887"
     transform="translate(-334.09998,-972.25336)" />
  <g
     id="br"
     transform="translate(-334.09998,-972.25336)">
    <use
       xlink:href="#af"
       id="use2889" />
    <use
       transform="translate(0,27.181)"
       xlink:href="#af"
       id="use2891" />
    <use
       transform="translate(0,54.372)"
       xlink:href="#af"
       id="use2893" />
    <use
       transform="translate(0,81.563)"
       xlink:href="#af"
       id="use2895" />
    <use
       transform="translate(0,108.74)"
       xlink:href="#af"
       id="use2897" />
    <use
       transform="translate(0,135.94)"
       xlink:href="#af"
       id="use2899" />
    <use
       transform="translate(0,163.13)"
       xlink:href="#af"
       id="use2901" />
  </g>
  <use
     transform="translate(129.59,-0.31300007)"
     xlink:href="#br"
     id="use2904" />
  <g
     id="bq"
     transform="translate(-479.26998,-1031.9164)">
    <use
       transform="rotate(-90,456.94,711.05)"
       xlink:href="#af"
       id="use2906" />
    <use
       transform="rotate(-90,470.54,697.46)"
       xlink:href="#af"
       id="use2908" />
    <use
       transform="rotate(-90,484.13,683.86)"
       xlink:href="#af"
       id="use2910" />
    <use
       transform="rotate(-90,497.72,670.27)"
       xlink:href="#af"
       id="use2912" />
  </g>
  <use
     transform="translate(4.4140625e-6,207.19004)"
     xlink:href="#bq"
     id="use2915" />
</svg>
